M48
; DRILL file {KiCad 9.0.4} date 2025-09-26T16:49:03+0300
; FORMAT={-:-/ absolute / metric / decimal}
; #@! TF.CreationDate,2025-09-26T16:49:03+03:00
; #@! TF.GenerationSoftware,Kicad,Pcbnew,9.0.4
; #@! TF.FileFunction,Plated,1,2,PTH
FMAT,2
METRIC
; #@! TA.AperFunction,Plated,PTH,ViaDrill
T1C0.300
; #@! TA.AperFunction,Plated,PTH,ComponentDrill
T2C1.300
%
G90
G05
T1
X131.5Y-108.5
X131.5Y-110.0
X132.0Y-95.0
X132.0Y-97.0
X133.5Y-95.0
X133.5Y-97.0
X133.5Y-108.5
X133.5Y-110.0
X135.0Y-95.0
X135.0Y-97.0
X135.5Y-108.5
X135.5Y-110.0
X136.5Y-95.0
X136.5Y-97.0
X136.5Y-99.0
X137.5Y-110.0
X138.0Y-95.0
X140.5Y-95.5
X140.5Y-100.5
X140.5Y-102.5
X140.5Y-103.5
X141.5Y-102.5
X145.0Y-102.5
X146.0Y-102.5
X146.0Y-103.5
X150.5Y-102.0
X150.5Y-103.0
X151.5Y-102.0
X152.5Y-102.0
X153.5Y-102.0
X154.5Y-102.0
X154.5Y-103.0
X157.0Y-95.5
X157.0Y-100.5
X160.0Y-94.0
X160.0Y-96.0
X160.0Y-98.0
X160.0Y-100.0
X160.0Y-102.0
X166.5Y-95.5
X166.5Y-97.0
X166.5Y-111.0
X166.5Y-112.5
X167.5Y-99.5
X167.5Y-101.0
X168.5Y-95.5
X168.5Y-97.0
X168.5Y-111.0
X168.5Y-112.5
X170.5Y-95.5
X170.5Y-97.0
X170.5Y-111.0
X170.5Y-112.5
X172.5Y-95.5
X172.5Y-97.0
X172.5Y-111.0
X172.5Y-112.5
X173.5Y-99.5
X173.5Y-101.0
X174.5Y-95.5
X174.5Y-97.0
X174.5Y-111.0
X174.5Y-112.5
T2
X170.607Y-101.3
X170.607Y-106.3
M30
