%TF.GenerationSoftware,KiCad,Pcbnew,9.0.4*%
%TF.CreationDate,2025-09-26T16:48:27+03:00*%
%TF.ProjectId,voltage_reg,766f6c74-6167-4655-9f72-65672e6b6963,rev?*%
%TF.SameCoordinates,Original*%
%TF.FileFunction,Copper,L1,Top*%
%TF.FilePolarity,Positive*%
%FSLAX46Y46*%
G04 Gerber Fmt 4.6, Leading zero omitted, Abs format (unit mm)*
G04 Created by KiCad (PCBNEW 9.0.4) date 2025-09-26 16:48:27*
%MOMM*%
%LPD*%
G01*
G04 APERTURE LIST*
G04 Aperture macros list*
%AMRoundRect*
0 Rectangle with rounded corners*
0 $1 Rounding radius*
0 $2 $3 $4 $5 $6 $7 $8 $9 X,Y pos of 4 corners*
0 Add a 4 corners polygon primitive as box body*
4,1,4,$2,$3,$4,$5,$6,$7,$8,$9,$2,$3,0*
0 Add four circle primitives for the rounded corners*
1,1,$1+$1,$2,$3*
1,1,$1+$1,$4,$5*
1,1,$1+$1,$6,$7*
1,1,$1+$1,$8,$9*
0 Add four rect primitives between the rounded corners*
20,1,$1+$1,$2,$3,$4,$5,0*
20,1,$1+$1,$4,$5,$6,$7,0*
20,1,$1+$1,$6,$7,$8,$9,0*
20,1,$1+$1,$8,$9,$2,$3,0*%
G04 Aperture macros list end*
%TA.AperFunction,SMDPad,CuDef*%
%ADD10RoundRect,0.250000X1.500000X0.550000X-1.500000X0.550000X-1.500000X-0.550000X1.500000X-0.550000X0*%
%TD*%
%TA.AperFunction,ComponentPad*%
%ADD11RoundRect,0.250001X1.149999X-1.149999X1.149999X1.149999X-1.149999X1.149999X-1.149999X-1.149999X0*%
%TD*%
%TA.AperFunction,ComponentPad*%
%ADD12C,2.800000*%
%TD*%
%TA.AperFunction,SMDPad,CuDef*%
%ADD13RoundRect,0.250000X-1.500000X-0.550000X1.500000X-0.550000X1.500000X0.550000X-1.500000X0.550000X0*%
%TD*%
%TA.AperFunction,SMDPad,CuDef*%
%ADD14RoundRect,0.250000X0.550000X-1.500000X0.550000X1.500000X-0.550000X1.500000X-0.550000X-1.500000X0*%
%TD*%
%TA.AperFunction,SMDPad,CuDef*%
%ADD15RoundRect,0.140000X0.170000X-0.140000X0.170000X0.140000X-0.170000X0.140000X-0.170000X-0.140000X0*%
%TD*%
%TA.AperFunction,SMDPad,CuDef*%
%ADD16R,1.380000X0.450000*%
%TD*%
%TA.AperFunction,SMDPad,CuDef*%
%ADD17R,1.300000X1.650000*%
%TD*%
%TA.AperFunction,SMDPad,CuDef*%
%ADD18R,1.550000X1.425000*%
%TD*%
%TA.AperFunction,SMDPad,CuDef*%
%ADD19R,1.900000X1.800000*%
%TD*%
%TA.AperFunction,SMDPad,CuDef*%
%ADD20R,1.900000X1.000000*%
%TD*%
%TA.AperFunction,SMDPad,CuDef*%
%ADD21RoundRect,0.250000X-0.850000X-0.350000X0.850000X-0.350000X0.850000X0.350000X-0.850000X0.350000X0*%
%TD*%
%TA.AperFunction,SMDPad,CuDef*%
%ADD22RoundRect,0.249997X-2.950003X-2.650003X2.950003X-2.650003X2.950003X2.650003X-2.950003X2.650003X0*%
%TD*%
%TA.AperFunction,ViaPad*%
%ADD23C,0.600000*%
%TD*%
%TA.AperFunction,Conductor*%
%ADD24C,0.400000*%
%TD*%
%TA.AperFunction,Conductor*%
%ADD25C,0.200000*%
%TD*%
%TA.AperFunction,Conductor*%
%ADD26C,0.450000*%
%TD*%
G04 APERTURE END LIST*
D10*
%TO.P,C5,1*%
%TO.N,+3.3V*%
X145930000Y-98090000D03*
%TO.P,C5,2*%
%TO.N,GND*%
X140530000Y-98090000D03*
%TD*%
D11*
%TO.P,J2,1,Pin_1*%
%TO.N,+3.3V*%
X170607500Y-106300000D03*
D12*
%TO.P,J2,2,Pin_2*%
%TO.N,GND*%
X170607500Y-101300000D03*
%TD*%
D13*
%TO.P,C2,1*%
%TO.N,+3.3V*%
X151460000Y-98070000D03*
%TO.P,C2,2*%
%TO.N,GND*%
X156860000Y-98070000D03*
%TD*%
D14*
%TO.P,C4,1*%
%TO.N,+5V*%
X143250000Y-110210000D03*
%TO.P,C4,2*%
%TO.N,GND*%
X143250000Y-104810000D03*
%TD*%
D15*
%TO.P,C3,1*%
%TO.N,+5V*%
X150270000Y-108900000D03*
%TO.P,C3,2*%
%TO.N,GND*%
X150270000Y-107940000D03*
%TD*%
%TO.P,C1,1*%
%TO.N,+3.3V*%
X150240000Y-105820000D03*
%TO.P,C1,2*%
%TO.N,GND*%
X150240000Y-104860000D03*
%TD*%
D16*
%TO.P,J1,1,VBUS*%
%TO.N,+5V*%
X134420000Y-101460000D03*
%TO.P,J1,2,D-*%
%TO.N,unconnected-(J1-D--Pad2)*%
X134420000Y-102110000D03*
%TO.P,J1,3,D+*%
%TO.N,unconnected-(J1-D+-Pad3)*%
X134420000Y-102760000D03*
%TO.P,J1,4,ID*%
%TO.N,unconnected-(J1-ID-Pad4)*%
X134420000Y-103410000D03*
%TO.P,J1,5,GND*%
%TO.N,GND*%
X134420000Y-104060000D03*
D17*
%TO.P,J1,6,Shield*%
X131760000Y-99385000D03*
D18*
X134335000Y-100272500D03*
D19*
X131760000Y-101610000D03*
D20*
X131760000Y-104310000D03*
D18*
X134335000Y-105247500D03*
D17*
X131760000Y-106135000D03*
%TD*%
D21*
%TO.P,U1,1,GND*%
%TO.N,GND*%
X152505000Y-104165000D03*
%TO.P,U1,2,VO*%
%TO.N,+3.3V*%
X152505000Y-106445000D03*
D22*
X158805000Y-106445000D03*
D21*
%TO.P,U1,3,VI*%
%TO.N,+5V*%
X152505000Y-108725000D03*
%TD*%
D23*
%TO.N,GND*%
X168500000Y-95500000D03*
X174500000Y-95500000D03*
X170500000Y-95500000D03*
X172500000Y-95500000D03*
X166500000Y-95500000D03*
X170500000Y-112500000D03*
X172500000Y-112500000D03*
X166500000Y-112500000D03*
X168500000Y-112500000D03*
X174500000Y-112500000D03*
X174500000Y-111000000D03*
X172500000Y-111000000D03*
X166500000Y-111000000D03*
X170500000Y-111000000D03*
X168500000Y-111000000D03*
X154500000Y-103000000D03*
X154500000Y-102000000D03*
X153500000Y-102000000D03*
X152500000Y-102000000D03*
X157000000Y-100500000D03*
X157000000Y-95500000D03*
X140500000Y-100500000D03*
X140500000Y-95500000D03*
X173500000Y-101000000D03*
X173500000Y-99500000D03*
X167500000Y-101000000D03*
X167500000Y-99500000D03*
X137500000Y-110000000D03*
X135500000Y-110000000D03*
X133500000Y-110000000D03*
X131500000Y-110000000D03*
X135000000Y-97000000D03*
X133500000Y-97000000D03*
X132000000Y-97000000D03*
X141500000Y-102500000D03*
X145000000Y-102500000D03*
X151500000Y-102000000D03*
X150500000Y-103000000D03*
X146000000Y-102500000D03*
X140500000Y-102500000D03*
X136500000Y-99000000D03*
X136500000Y-97000000D03*
X135500000Y-108500000D03*
X133500000Y-108500000D03*
X131500000Y-108500000D03*
X150500000Y-102000000D03*
X146000000Y-103500000D03*
X140500000Y-103500000D03*
X132000000Y-95000000D03*
X133500000Y-95000000D03*
X135000000Y-95000000D03*
X136500000Y-95000000D03*
X138000000Y-95000000D03*
X160000000Y-94000000D03*
X160000000Y-96000000D03*
X160000000Y-102000000D03*
X160000000Y-98000000D03*
X160000000Y-100000000D03*
X166500000Y-97000000D03*
X168500000Y-97000000D03*
X170500000Y-97000000D03*
X172500000Y-97000000D03*
X174500000Y-97000000D03*
%TD*%
D24*
%TO.N,GND*%
X146000000Y-106500000D02*
X146000000Y-103500000D01*
X147440000Y-107940000D02*
X146000000Y-106500000D01*
X150270000Y-107940000D02*
X147440000Y-107940000D01*
D25*
X134420000Y-105162500D02*
X134335000Y-105247500D01*
D26*
X134420000Y-104060000D02*
X134420000Y-105162500D01*
%TD*%
%TA.AperFunction,Conductor*%
%TO.N,+5V*%
G36*
X137015746Y-101189654D02*
G01*
X137047480Y-101218630D01*
X142590000Y-108410000D01*
X146873720Y-108415577D01*
X146940732Y-108435349D01*
X146961238Y-108451896D01*
X146993454Y-108484112D01*
X147108192Y-108560777D01*
X147235667Y-108613578D01*
X147235672Y-108613580D01*
X147235676Y-108613580D01*
X147235677Y-108613581D01*
X147371004Y-108640500D01*
X147371007Y-108640500D01*
X149755584Y-108640500D01*
X149818704Y-108657767D01*
X149843605Y-108672494D01*
X149884587Y-108684400D01*
X149999002Y-108717642D01*
X149999005Y-108717642D01*
X149999007Y-108717643D01*
X150035310Y-108720500D01*
X150035318Y-108720500D01*
X150504682Y-108720500D01*
X150504690Y-108720500D01*
X150540993Y-108717643D01*
X150540995Y-108717642D01*
X150540997Y-108717642D01*
X150581975Y-108705736D01*
X150696395Y-108672494D01*
X150835687Y-108590117D01*
X150950117Y-108475687D01*
X151032494Y-108336395D01*
X151072627Y-108198258D01*
X151110233Y-108139372D01*
X151173705Y-108110166D01*
X151190859Y-108108857D01*
X153886679Y-108090824D01*
X153953845Y-108110059D01*
X153999952Y-108162556D01*
X154011496Y-108213316D01*
X154058474Y-112084315D01*
X154039604Y-112151589D01*
X153987359Y-112197981D01*
X153934306Y-112209820D01*
X140139538Y-112190113D01*
X140072527Y-112170333D01*
X140026936Y-112117659D01*
X138425390Y-108613581D01*
X135750000Y-102760000D01*
X135259500Y-102760000D01*
X135192461Y-102740315D01*
X135146706Y-102687511D01*
X135137589Y-102658665D01*
X135135500Y-102647428D01*
X135135500Y-102532486D01*
X135134021Y-102525050D01*
X135128385Y-102516615D01*
X135119950Y-102510979D01*
X135112514Y-102509500D01*
X135109858Y-102509500D01*
X135100221Y-102457665D01*
X135103587Y-102424706D01*
X135105950Y-102391666D01*
X135107152Y-102389794D01*
X135107320Y-102388157D01*
X135111888Y-102382425D01*
X135123297Y-102364673D01*
X135121600Y-102363539D01*
X135128383Y-102353385D01*
X135128385Y-102353385D01*
X135134021Y-102344950D01*
X135135500Y-102337514D01*
X135135500Y-101882486D01*
X135134021Y-101875050D01*
X135128385Y-101866615D01*
X135119950Y-101860979D01*
X135112514Y-101859500D01*
X133727486Y-101859500D01*
X133722528Y-101860486D01*
X133720049Y-101860979D01*
X133711615Y-101866615D01*
X133705979Y-101875049D01*
X133705979Y-101875050D01*
X133704500Y-101882486D01*
X133704500Y-102337514D01*
X133705979Y-102344950D01*
X133718400Y-102363539D01*
X133715473Y-102365494D01*
X133739034Y-102408642D01*
X133739779Y-102457665D01*
X133730142Y-102509500D01*
X133727486Y-102509500D01*
X133720050Y-102510979D01*
X133711615Y-102516615D01*
X133705979Y-102525050D01*
X133704500Y-102532486D01*
X133704500Y-102647428D01*
X133702411Y-102658665D01*
X133691567Y-102680043D01*
X133684815Y-102703039D01*
X133676052Y-102710632D01*
X133670805Y-102720977D01*
X133650123Y-102733099D01*
X133632011Y-102748794D01*
X133618235Y-102751790D01*
X133610527Y-102756309D01*
X133599538Y-102755858D01*
X133580500Y-102760000D01*
X133394000Y-102760000D01*
X133326961Y-102740315D01*
X133281206Y-102687511D01*
X133270000Y-102636000D01*
X133270000Y-101313338D01*
X133289685Y-101246299D01*
X133342489Y-101200544D01*
X133393334Y-101189340D01*
X136948603Y-101170328D01*
X137015746Y-101189654D01*
G37*
%TD.AperFunction*%
%TD*%
%TA.AperFunction,Conductor*%
%TO.N,GND*%
G36*
X174902539Y-92840185D02*
G01*
X174948294Y-92892989D01*
X174959500Y-92944500D01*
X174959500Y-113315500D01*
X174939815Y-113382539D01*
X174887011Y-113428294D01*
X174835500Y-113439500D01*
X129874500Y-113439500D01*
X129807461Y-113419815D01*
X129761706Y-113367011D01*
X129750500Y-113315500D01*
X129750500Y-101313338D01*
X132764500Y-101313338D01*
X132764500Y-102636000D01*
X132764501Y-102636009D01*
X132776052Y-102743450D01*
X132776054Y-102743462D01*
X132787260Y-102794972D01*
X132821383Y-102897497D01*
X132821386Y-102897503D01*
X132899171Y-103018537D01*
X132899179Y-103018548D01*
X132944923Y-103071340D01*
X132944926Y-103071343D01*
X132944930Y-103071347D01*
X133053664Y-103165567D01*
X133053667Y-103165568D01*
X133053668Y-103165569D01*
X133134069Y-103202288D01*
X133184541Y-103225338D01*
X133251580Y-103245023D01*
X133251584Y-103245024D01*
X133394000Y-103265500D01*
X133394003Y-103265500D01*
X133580500Y-103265500D01*
X133647539Y-103285185D01*
X133693294Y-103337989D01*
X133704500Y-103389500D01*
X133704500Y-103637514D01*
X133705979Y-103644950D01*
X133711615Y-103653385D01*
X133720050Y-103659021D01*
X133727486Y-103660500D01*
X133727488Y-103660500D01*
X135112512Y-103660500D01*
X135112514Y-103660500D01*
X135119950Y-103659021D01*
X135128385Y-103653385D01*
X135134021Y-103644950D01*
X135135500Y-103637514D01*
X135135500Y-103389500D01*
X135138050Y-103380814D01*
X135136762Y-103371853D01*
X135147740Y-103347812D01*
X135155185Y-103322461D01*
X135162025Y-103316533D01*
X135165787Y-103308297D01*
X135188021Y-103294007D01*
X135207989Y-103276706D01*
X135218503Y-103274418D01*
X135224565Y-103270523D01*
X135259500Y-103265500D01*
X135345580Y-103265500D01*
X135412619Y-103285185D01*
X135458359Y-103337954D01*
X136458918Y-105527113D01*
X139549045Y-112288111D01*
X139567185Y-112327799D01*
X139567187Y-112327801D01*
X139644713Y-112448471D01*
X139644720Y-112448480D01*
X139690305Y-112501148D01*
X139716382Y-112523789D01*
X139798627Y-112595197D01*
X139929420Y-112655153D01*
X139996431Y-112674933D01*
X140138816Y-112695612D01*
X151962902Y-112712503D01*
X153933583Y-112715319D01*
X153933583Y-112715318D01*
X153933584Y-112715319D01*
X154044402Y-112703185D01*
X154097455Y-112691346D01*
X154202914Y-112655219D01*
X154323001Y-112575969D01*
X154375246Y-112529577D01*
X154375246Y-112529576D01*
X154375246Y-112529575D01*
X154381763Y-112523789D01*
X154386508Y-112516255D01*
X154468142Y-112419704D01*
X154526320Y-112288110D01*
X154545190Y-112220836D01*
X154545190Y-112220835D01*
X154545195Y-112220790D01*
X154546201Y-112213488D01*
X154546247Y-112212791D01*
X154563937Y-112078178D01*
X154536841Y-109845499D01*
X154516959Y-108207182D01*
X154504410Y-108101216D01*
X154495364Y-108061439D01*
X154499692Y-107991705D01*
X154541035Y-107935379D01*
X154606266Y-107910347D01*
X154616162Y-107909942D01*
X154980402Y-107909654D01*
X155047457Y-107929286D01*
X155093254Y-107982053D01*
X155104500Y-108033654D01*
X155104500Y-109145019D01*
X155115001Y-109247801D01*
X155170184Y-109414333D01*
X155170189Y-109414344D01*
X155262285Y-109563653D01*
X155262288Y-109563657D01*
X155386342Y-109687711D01*
X155386346Y-109687714D01*
X155535655Y-109779810D01*
X155535658Y-109779811D01*
X155535664Y-109779815D01*
X155702200Y-109834999D01*
X155804988Y-109845500D01*
X155804993Y-109845500D01*
X161805007Y-109845500D01*
X161805012Y-109845500D01*
X161907800Y-109834999D01*
X162074336Y-109779815D01*
X162223657Y-109687712D01*
X162347712Y-109563657D01*
X162439815Y-109414336D01*
X162494999Y-109247800D01*
X162505500Y-109145012D01*
X162505500Y-108027587D01*
X162525185Y-107960548D01*
X162577989Y-107914793D01*
X162629398Y-107903587D01*
X168793375Y-107898699D01*
X168860428Y-107918330D01*
X168881152Y-107935018D01*
X168988844Y-108042710D01*
X168988848Y-108042713D01*
X169138162Y-108134812D01*
X169138164Y-108134813D01*
X169138166Y-108134814D01*
X169304703Y-108189999D01*
X169407492Y-108200500D01*
X169407497Y-108200500D01*
X171807503Y-108200500D01*
X171807508Y-108200500D01*
X171910297Y-108189999D01*
X172076834Y-108134814D01*
X172226155Y-108042711D01*
X172336727Y-107932139D01*
X172398050Y-107898654D01*
X172424304Y-107895820D01*
X172707120Y-107895597D01*
X172813123Y-107884271D01*
X172863969Y-107873323D01*
X172965245Y-107840017D01*
X173086674Y-107762838D01*
X173086680Y-107762832D01*
X173086684Y-107762830D01*
X173126293Y-107728855D01*
X173133857Y-107724034D01*
X173202958Y-107645091D01*
X173234474Y-107609086D01*
X173294900Y-107478509D01*
X173314921Y-107411569D01*
X173336113Y-107269260D01*
X173344868Y-105527111D01*
X173333613Y-105418468D01*
X173322431Y-105366381D01*
X173288098Y-105262683D01*
X173210361Y-105141611D01*
X173164628Y-105088788D01*
X173111090Y-105042357D01*
X173055932Y-104994522D01*
X172970229Y-104955339D01*
X172925081Y-104934698D01*
X172925079Y-104934697D01*
X172925076Y-104934696D01*
X172858050Y-104914985D01*
X172858046Y-104914983D01*
X172858043Y-104914983D01*
X172715645Y-104894448D01*
X172550766Y-104894378D01*
X172483735Y-104874665D01*
X172445281Y-104835475D01*
X172350213Y-104681348D01*
X172350210Y-104681344D01*
X172226155Y-104557289D01*
X172226151Y-104557286D01*
X172076837Y-104465187D01*
X172076835Y-104465186D01*
X171993565Y-104437593D01*
X171910297Y-104410001D01*
X171910295Y-104410000D01*
X171807515Y-104399500D01*
X171807508Y-104399500D01*
X169407492Y-104399500D01*
X169407484Y-104399500D01*
X169304704Y-104410000D01*
X169304703Y-104410001D01*
X169138164Y-104465186D01*
X169138162Y-104465187D01*
X168988848Y-104557286D01*
X168988844Y-104557289D01*
X168864788Y-104681345D01*
X168770717Y-104833856D01*
X168718768Y-104880580D01*
X168665127Y-104892758D01*
X162629448Y-104890240D01*
X162562417Y-104870527D01*
X162516684Y-104817704D01*
X162505500Y-104766240D01*
X162505500Y-103744993D01*
X162505499Y-103744980D01*
X162494999Y-103642200D01*
X162439815Y-103475664D01*
X162439811Y-103475658D01*
X162439810Y-103475655D01*
X162347714Y-103326346D01*
X162347711Y-103326342D01*
X162223657Y-103202288D01*
X162223653Y-103202285D01*
X162074344Y-103110189D01*
X162074338Y-103110186D01*
X162074336Y-103110185D01*
X162074333Y-103110184D01*
X161907801Y-103055001D01*
X161805019Y-103044500D01*
X161805012Y-103044500D01*
X155804988Y-103044500D01*
X155804980Y-103044500D01*
X155702198Y-103055001D01*
X155535666Y-103110184D01*
X155535655Y-103110189D01*
X155386346Y-103202285D01*
X155386342Y-103202288D01*
X155262288Y-103326342D01*
X155262285Y-103326346D01*
X155170189Y-103475655D01*
X155170184Y-103475666D01*
X155115001Y-103642198D01*
X155104500Y-103744980D01*
X155104500Y-104763051D01*
X155084815Y-104830090D01*
X155032011Y-104875845D01*
X154980448Y-104887051D01*
X150976555Y-104885381D01*
X150976522Y-104885382D01*
X150922397Y-104888267D01*
X150922394Y-104888268D01*
X150895989Y-104891101D01*
X150842479Y-104899766D01*
X150842478Y-104899766D01*
X150707668Y-104950047D01*
X150707662Y-104950050D01*
X150646374Y-104983514D01*
X150646343Y-104983532D01*
X150631661Y-104994523D01*
X150602403Y-105016426D01*
X150599791Y-105018381D01*
X150534326Y-105042797D01*
X150515754Y-105042731D01*
X150474700Y-105039500D01*
X150474690Y-105039500D01*
X150005310Y-105039500D01*
X150005294Y-105039500D01*
X149973120Y-105042032D01*
X149904743Y-105027666D01*
X149888806Y-105017398D01*
X149888797Y-105017412D01*
X149888546Y-105017231D01*
X149888155Y-105016979D01*
X149887431Y-105016426D01*
X149843654Y-104984838D01*
X149843640Y-104984830D01*
X149712808Y-104925017D01*
X149678694Y-104914985D01*
X149645770Y-104905303D01*
X149645768Y-104905302D01*
X149645766Y-104905302D01*
X149503376Y-104884768D01*
X149503367Y-104884767D01*
X149490463Y-104884762D01*
X149423432Y-104865046D01*
X149377702Y-104812221D01*
X149366520Y-104760561D01*
X149374480Y-99849297D01*
X149394273Y-99782292D01*
X149447151Y-99736622D01*
X149498480Y-99725500D01*
X153404876Y-99725500D01*
X153404883Y-99725500D01*
X153514547Y-99713461D01*
X153567068Y-99701789D01*
X153567083Y-99701784D01*
X153671503Y-99666248D01*
X153671504Y-99666247D01*
X153671511Y-99666245D01*
X153791849Y-99587375D01*
X153844241Y-99541148D01*
X153844243Y-99541146D01*
X153937485Y-99431567D01*
X153996078Y-99300158D01*
X154015160Y-99232945D01*
X154034358Y-99090354D01*
X154016580Y-97108225D01*
X154004618Y-97003349D01*
X153993471Y-96953068D01*
X153959993Y-96852971D01*
X153959993Y-96852970D01*
X153882339Y-96731857D01*
X153882336Y-96731854D01*
X153882333Y-96731849D01*
X153836634Y-96678997D01*
X153836631Y-96678994D01*
X153836629Y-96678992D01*
X153728002Y-96584665D01*
X153727994Y-96584660D01*
X153703976Y-96573661D01*
X153597181Y-96524753D01*
X153597178Y-96524752D01*
X153530171Y-96505000D01*
X153530153Y-96504995D01*
X153387768Y-96484371D01*
X144076357Y-96474630D01*
X144076355Y-96474630D01*
X143965275Y-96486867D01*
X143912110Y-96498782D01*
X143806443Y-96535120D01*
X143806441Y-96535121D01*
X143686468Y-96614545D01*
X143686466Y-96614546D01*
X143686464Y-96614548D01*
X143634289Y-96661014D01*
X143541558Y-96771012D01*
X143483571Y-96902683D01*
X143483569Y-96902687D01*
X143465109Y-96968861D01*
X143464831Y-96969819D01*
X143464794Y-96969995D01*
X143446254Y-97112666D01*
X143446254Y-97112672D01*
X143472900Y-99075548D01*
X143474614Y-99090354D01*
X143484696Y-99177466D01*
X143495466Y-99226344D01*
X143495470Y-99226361D01*
X143527593Y-99323779D01*
X143604380Y-99445455D01*
X143649695Y-99498631D01*
X143649697Y-99498633D01*
X143649699Y-99498635D01*
X143757652Y-99593747D01*
X143888033Y-99654594D01*
X143954120Y-99674592D01*
X143954879Y-99674828D01*
X143954912Y-99674833D01*
X144097154Y-99696482D01*
X146990758Y-99720330D01*
X147057633Y-99740567D01*
X147102951Y-99793746D01*
X147113736Y-99844477D01*
X147104917Y-107067638D01*
X147104917Y-107067645D01*
X147107781Y-107121989D01*
X147107784Y-107122026D01*
X147110613Y-107148481D01*
X147110616Y-107148505D01*
X147119301Y-107202204D01*
X147119301Y-107202205D01*
X147119302Y-107202207D01*
X147169584Y-107337016D01*
X147203069Y-107398339D01*
X147289293Y-107513520D01*
X147289297Y-107513524D01*
X147289302Y-107513530D01*
X147336380Y-107560607D01*
X147336396Y-107560623D01*
X147336412Y-107560637D01*
X147336419Y-107560644D01*
X147376637Y-107596771D01*
X147376644Y-107596777D01*
X147376651Y-107596782D01*
X147376657Y-107596788D01*
X147397299Y-107613422D01*
X147441224Y-107645093D01*
X147451467Y-107649770D01*
X147479832Y-107667999D01*
X147542966Y-107691546D01*
X147546986Y-107693382D01*
X147546988Y-107693382D01*
X147572108Y-107704852D01*
X147574704Y-107705614D01*
X147574704Y-107705613D01*
X147598509Y-107712601D01*
X147598532Y-107712607D01*
X147602762Y-107713849D01*
X147614641Y-107718280D01*
X147626986Y-107720965D01*
X147632675Y-107722635D01*
X147633479Y-107722872D01*
X147635343Y-107723517D01*
X147639100Y-107724523D01*
X147639103Y-107724524D01*
X147781519Y-107745000D01*
X147781522Y-107745000D01*
X149755589Y-107745000D01*
X149850861Y-107732202D01*
X149888972Y-107727084D01*
X149952093Y-107709816D01*
X150001249Y-107688999D01*
X150014985Y-107684115D01*
X150063836Y-107669922D01*
X150098427Y-107665000D01*
X150441572Y-107665000D01*
X150476149Y-107669919D01*
X150478973Y-107670739D01*
X150507526Y-107683093D01*
X150509930Y-107684515D01*
X150534481Y-107703561D01*
X150559354Y-107728434D01*
X150597670Y-107762839D01*
X150599769Y-107764723D01*
X150612850Y-107775256D01*
X150652720Y-107832633D01*
X150655241Y-107902458D01*
X150648022Y-107923026D01*
X150591975Y-108046688D01*
X150546372Y-108099623D01*
X150479389Y-108119499D01*
X150479034Y-108119500D01*
X150035302Y-108119500D01*
X149999013Y-108122356D01*
X149999000Y-108122358D01*
X149917431Y-108146055D01*
X149866333Y-108149874D01*
X149755591Y-108135000D01*
X149755584Y-108135000D01*
X147433008Y-108135000D01*
X147408811Y-108132616D01*
X147395090Y-108129886D01*
X147371834Y-108122831D01*
X147358918Y-108117481D01*
X147337488Y-108106027D01*
X147321760Y-108095518D01*
X147307764Y-108084642D01*
X147297202Y-108075148D01*
X147278682Y-108058501D01*
X147277102Y-108057226D01*
X147258184Y-108041960D01*
X147258174Y-108041952D01*
X147214580Y-108010452D01*
X147214578Y-108010451D01*
X147083791Y-107950514D01*
X147083782Y-107950511D01*
X147016786Y-107930743D01*
X147016776Y-107930741D01*
X147016774Y-107930740D01*
X147016772Y-107930740D01*
X147016767Y-107930739D01*
X146874378Y-107910077D01*
X146874379Y-107910077D01*
X142899750Y-107904902D01*
X142832736Y-107885130D01*
X142801696Y-107856598D01*
X142788917Y-107840017D01*
X137447863Y-100910047D01*
X137388333Y-100845334D01*
X137374548Y-100832747D01*
X137356604Y-100816362D01*
X137356599Y-100816358D01*
X137286765Y-100762947D01*
X137237409Y-100740725D01*
X137155569Y-100703877D01*
X137090901Y-100685263D01*
X137089156Y-100684721D01*
X137088416Y-100684548D01*
X136945898Y-100664834D01*
X133390646Y-100683846D01*
X133390632Y-100683846D01*
X133390631Y-100683847D01*
X133390629Y-100683847D01*
X133390618Y-100683848D01*
X133284566Y-100695680D01*
X133284556Y-100695682D01*
X133248080Y-100703720D01*
X133233709Y-100706887D01*
X133133385Y-100740427D01*
X133132493Y-100740726D01*
X133011462Y-100818509D01*
X133011451Y-100818517D01*
X132958659Y-100864261D01*
X132864433Y-100973002D01*
X132864430Y-100973006D01*
X132804664Y-101103872D01*
X132804662Y-101103879D01*
X132784977Y-101170918D01*
X132784976Y-101170922D01*
X132764500Y-101313338D01*
X129750500Y-101313338D01*
X129750500Y-92944500D01*
X129770185Y-92877461D01*
X129822989Y-92831706D01*
X129874500Y-92820500D01*
X174835500Y-92820500D01*
X174902539Y-92840185D01*
G37*
%TD.AperFunction*%
%TD*%
%TA.AperFunction,Conductor*%
%TO.N,+3.3V*%
G36*
X153387236Y-96989871D02*
G01*
X153454254Y-97009626D01*
X153499953Y-97062478D01*
X153511100Y-97112759D01*
X153528878Y-99094888D01*
X153509796Y-99162101D01*
X153457404Y-99208328D01*
X153404883Y-99220000D01*
X148870000Y-99220000D01*
X148860000Y-105390000D01*
X148860221Y-105390000D01*
X149503156Y-105390268D01*
X149570184Y-105409979D01*
X149590777Y-105426581D01*
X149674313Y-105510117D01*
X149813605Y-105592494D01*
X149854587Y-105604400D01*
X149969002Y-105637642D01*
X149969005Y-105637642D01*
X149969007Y-105637643D01*
X150005310Y-105640500D01*
X150005318Y-105640500D01*
X150474682Y-105640500D01*
X150474690Y-105640500D01*
X150510993Y-105637643D01*
X150510995Y-105637642D01*
X150510997Y-105637642D01*
X150551975Y-105625736D01*
X150666395Y-105592494D01*
X150805687Y-105510117D01*
X150888604Y-105427199D01*
X150949925Y-105393716D01*
X150976330Y-105390882D01*
X172715428Y-105399948D01*
X172782459Y-105419661D01*
X172828192Y-105472484D01*
X172839374Y-105524571D01*
X172830619Y-107266720D01*
X172810598Y-107333660D01*
X172757565Y-107379149D01*
X172706719Y-107390097D01*
X151004571Y-107407307D01*
X150937516Y-107387676D01*
X150916796Y-107370992D01*
X150835687Y-107289883D01*
X150796520Y-107266720D01*
X150696393Y-107207505D01*
X150696390Y-107207504D01*
X150540997Y-107162357D01*
X150540991Y-107162356D01*
X150504697Y-107159500D01*
X150504690Y-107159500D01*
X150035310Y-107159500D01*
X150035302Y-107159500D01*
X149999008Y-107162356D01*
X149999002Y-107162357D01*
X149843609Y-107207504D01*
X149843606Y-107207505D01*
X149818705Y-107222232D01*
X149755584Y-107239500D01*
X147781519Y-107239500D01*
X147752078Y-107230855D01*
X147722092Y-107224332D01*
X147717076Y-107220577D01*
X147714480Y-107219815D01*
X147693838Y-107203181D01*
X147646735Y-107156078D01*
X147613250Y-107094755D01*
X147610417Y-107068257D01*
X147620000Y-99220000D01*
X147619999Y-99219999D01*
X144101320Y-99190999D01*
X144034445Y-99170762D01*
X143989127Y-99117583D01*
X143978353Y-99068686D01*
X143951707Y-97105810D01*
X143970480Y-97038514D01*
X144022658Y-96992046D01*
X144075823Y-96980131D01*
X153387236Y-96989871D01*
G37*
%TD.AperFunction*%
%TD*%
M02*
