%TF.GenerationSoftware,KiCad,Pcbnew,9.0.4*%
%TF.CreationDate,2025-09-26T16:48:27+03:00*%
%TF.ProjectId,voltage_reg,766f6c74-6167-4655-9f72-65672e6b6963,rev?*%
%TF.SameCoordinates,Original*%
%TF.FileFunction,Legend,Top*%
%TF.FilePolarity,Positive*%
%FSLAX46Y46*%
G04 Gerber Fmt 4.6, Leading zero omitted, Abs format (unit mm)*
G04 Created by KiCad (PCBNEW 9.0.4) date 2025-09-26 16:48:27*
%MOMM*%
%LPD*%
G01*
G04 APERTURE LIST*
%ADD10C,0.087500*%
%ADD11C,0.150000*%
%ADD12C,0.120000*%
G04 APERTURE END LIST*
D10*
G36*
X134037147Y-111046528D02*
G01*
X134037147Y-111392451D01*
X134003903Y-111409073D01*
X133891225Y-111409073D01*
X133840147Y-111383534D01*
X133816852Y-111360239D01*
X133791314Y-111309162D01*
X133791314Y-111129816D01*
X133816852Y-111078738D01*
X133840146Y-111055446D01*
X133891225Y-111029906D01*
X134003903Y-111029906D01*
X134037147Y-111046528D01*
G37*
G36*
X136837146Y-111046528D02*
G01*
X136837146Y-111392451D01*
X136803902Y-111409073D01*
X136691224Y-111409073D01*
X136640146Y-111383534D01*
X136616851Y-111360239D01*
X136591313Y-111309162D01*
X136591313Y-111129816D01*
X136616851Y-111078738D01*
X136640145Y-111055446D01*
X136691224Y-111029906D01*
X136803902Y-111029906D01*
X136837146Y-111046528D01*
G37*
G36*
X131988314Y-111055445D02*
G01*
X132011608Y-111078739D01*
X132037148Y-111129818D01*
X132037148Y-111309161D01*
X132011607Y-111360240D01*
X131988315Y-111383534D01*
X131937237Y-111409073D01*
X131857892Y-111409073D01*
X131806814Y-111383534D01*
X131783519Y-111360239D01*
X131757981Y-111309162D01*
X131757981Y-111129816D01*
X131783519Y-111078738D01*
X131806813Y-111055446D01*
X131857892Y-111029906D01*
X131937236Y-111029906D01*
X131988314Y-111055445D01*
G37*
G36*
X133403814Y-111392451D02*
G01*
X133370570Y-111409073D01*
X133224559Y-111409073D01*
X133180173Y-111386880D01*
X133157981Y-111342496D01*
X133157981Y-111296483D01*
X133180172Y-111252099D01*
X133224559Y-111229906D01*
X133380898Y-111229906D01*
X133383047Y-111229478D01*
X133384000Y-111229796D01*
X133390762Y-111227943D01*
X133397640Y-111226576D01*
X133398350Y-111225865D01*
X133400464Y-111225287D01*
X133403814Y-111223612D01*
X133403814Y-111392451D01*
G37*
G36*
X134648287Y-111052099D02*
G01*
X134670480Y-111096484D01*
X134670480Y-111116957D01*
X134424647Y-111166123D01*
X134424647Y-111096483D01*
X134446838Y-111052099D01*
X134491225Y-111029906D01*
X134603902Y-111029906D01*
X134648287Y-111052099D01*
G37*
G36*
X136214953Y-111052099D02*
G01*
X136237146Y-111096484D01*
X136237146Y-111116957D01*
X135991313Y-111166123D01*
X135991313Y-111096483D01*
X136013504Y-111052099D01*
X136057891Y-111029906D01*
X136170568Y-111029906D01*
X136214953Y-111052099D01*
G37*
G36*
X137002424Y-112701311D02*
G01*
X131026091Y-112701311D01*
X131026091Y-112208763D01*
X131137365Y-112208763D01*
X131139013Y-112225753D01*
X131140478Y-112227543D01*
X131140478Y-112229859D01*
X131150894Y-112240275D01*
X131160217Y-112251670D01*
X131162519Y-112251900D01*
X131164155Y-112253536D01*
X131178881Y-112253536D01*
X131193535Y-112255001D01*
X131195326Y-112253536D01*
X131197641Y-112253536D01*
X131211834Y-112244052D01*
X131240147Y-112215738D01*
X131291226Y-112190200D01*
X131437237Y-112190200D01*
X131488316Y-112215739D01*
X131511609Y-112239032D01*
X131537148Y-112290110D01*
X131537148Y-112436122D01*
X131511609Y-112487200D01*
X131488314Y-112510494D01*
X131437237Y-112536033D01*
X131291226Y-112536033D01*
X131240147Y-112510494D01*
X131211834Y-112482181D01*
X131197641Y-112472697D01*
X131164156Y-112472696D01*
X131140479Y-112496373D01*
X131140478Y-112529858D01*
X131149962Y-112544051D01*
X131183295Y-112577386D01*
X131189129Y-112581284D01*
X131194666Y-112585581D01*
X131261333Y-112618914D01*
X131263445Y-112619492D01*
X131264156Y-112620203D01*
X131271037Y-112621571D01*
X131277797Y-112623423D01*
X131278749Y-112623105D01*
X131280898Y-112623533D01*
X131447565Y-112623533D01*
X131449714Y-112623105D01*
X131450667Y-112623423D01*
X131457429Y-112621570D01*
X131464307Y-112620203D01*
X131465017Y-112619492D01*
X131467131Y-112618914D01*
X131533797Y-112585581D01*
X131539333Y-112581284D01*
X131545167Y-112577386D01*
X131578501Y-112544052D01*
X131582396Y-112538221D01*
X131586696Y-112532682D01*
X131620029Y-112466015D01*
X131620607Y-112463902D01*
X131621318Y-112463192D01*
X131622686Y-112456313D01*
X131624538Y-112449552D01*
X131624220Y-112448599D01*
X131624648Y-112446450D01*
X131624648Y-112279783D01*
X131624220Y-112277634D01*
X131624538Y-112276682D01*
X131622686Y-112269922D01*
X131621318Y-112263041D01*
X131620607Y-112262330D01*
X131620029Y-112260218D01*
X131586696Y-112193551D01*
X131582399Y-112188014D01*
X131578501Y-112182180D01*
X131545166Y-112148847D01*
X131539339Y-112144953D01*
X131533797Y-112140652D01*
X131474381Y-112110944D01*
X131770536Y-112110944D01*
X131773031Y-112127831D01*
X131939697Y-112594498D01*
X131948464Y-112609145D01*
X131950549Y-112610132D01*
X131951537Y-112612217D01*
X131965410Y-112617171D01*
X131978726Y-112623479D01*
X131980898Y-112622703D01*
X131983070Y-112623479D01*
X131996377Y-112617175D01*
X132010259Y-112612218D01*
X132011247Y-112610131D01*
X132013332Y-112609144D01*
X132022099Y-112594498D01*
X132128572Y-112296374D01*
X132907144Y-112296374D01*
X132907144Y-112329858D01*
X132930822Y-112353536D01*
X132947564Y-112356866D01*
X133480898Y-112356866D01*
X133497640Y-112353536D01*
X133521318Y-112329858D01*
X133521318Y-112296374D01*
X133497640Y-112272696D01*
X133480898Y-112269366D01*
X132947564Y-112269366D01*
X132930822Y-112272696D01*
X132907144Y-112296374D01*
X132128572Y-112296374D01*
X132188766Y-112127831D01*
X132191261Y-112110944D01*
X132176926Y-112080682D01*
X132145393Y-112069420D01*
X132115131Y-112083755D01*
X132106364Y-112098401D01*
X131980897Y-112449705D01*
X131855433Y-112098401D01*
X131846666Y-112083755D01*
X131816404Y-112069420D01*
X131784871Y-112080682D01*
X131770536Y-112110944D01*
X131474381Y-112110944D01*
X131467131Y-112107319D01*
X131465017Y-112106740D01*
X131464307Y-112106030D01*
X131457429Y-112104662D01*
X131450667Y-112102810D01*
X131449714Y-112103127D01*
X131447565Y-112102700D01*
X131280898Y-112102700D01*
X131278749Y-112103127D01*
X131277797Y-112102810D01*
X131271037Y-112104661D01*
X131264156Y-112106030D01*
X131263445Y-112106740D01*
X131261333Y-112107319D01*
X131234083Y-112120943D01*
X131253824Y-111923533D01*
X131547565Y-111923533D01*
X131564307Y-111920203D01*
X131587985Y-111896525D01*
X131587985Y-111863041D01*
X134240478Y-111863041D01*
X134240478Y-111896525D01*
X134264156Y-111920203D01*
X134280898Y-111923533D01*
X134617817Y-111923533D01*
X134447973Y-112117640D01*
X134441763Y-112128422D01*
X134440478Y-112129708D01*
X134440478Y-112130654D01*
X134439454Y-112132433D01*
X134440478Y-112147789D01*
X134440478Y-112163192D01*
X134441578Y-112164292D01*
X134441682Y-112165845D01*
X134453273Y-112175987D01*
X134464156Y-112186870D01*
X134466168Y-112187270D01*
X134466881Y-112187894D01*
X134468695Y-112187772D01*
X134480898Y-112190200D01*
X134570570Y-112190200D01*
X134621649Y-112215739D01*
X134644942Y-112239032D01*
X134670481Y-112290110D01*
X134670481Y-112436122D01*
X134644942Y-112487200D01*
X134621647Y-112510494D01*
X134570570Y-112536033D01*
X134391226Y-112536033D01*
X134340147Y-112510494D01*
X134311834Y-112482181D01*
X134297641Y-112472697D01*
X134264156Y-112472696D01*
X134240479Y-112496373D01*
X134240478Y-112529858D01*
X134249962Y-112544051D01*
X134283295Y-112577386D01*
X134289129Y-112581284D01*
X134294666Y-112585581D01*
X134361333Y-112618914D01*
X134363445Y-112619492D01*
X134364156Y-112620203D01*
X134371037Y-112621571D01*
X134377797Y-112623423D01*
X134378749Y-112623105D01*
X134380898Y-112623533D01*
X134580898Y-112623533D01*
X134583047Y-112623105D01*
X134584000Y-112623423D01*
X134590762Y-112621570D01*
X134597640Y-112620203D01*
X134598350Y-112619492D01*
X134600464Y-112618914D01*
X134667130Y-112585581D01*
X134672666Y-112581284D01*
X134678500Y-112577386D01*
X134711834Y-112544052D01*
X134715729Y-112538221D01*
X134720029Y-112532682D01*
X134753362Y-112466015D01*
X134753940Y-112463902D01*
X134754651Y-112463192D01*
X134756019Y-112456313D01*
X134757871Y-112449552D01*
X134757553Y-112448599D01*
X134757981Y-112446450D01*
X134757981Y-112279783D01*
X134757553Y-112277634D01*
X134757871Y-112276682D01*
X134756019Y-112269922D01*
X134754651Y-112263041D01*
X134753940Y-112262330D01*
X134753362Y-112260218D01*
X134720029Y-112193551D01*
X134715732Y-112188014D01*
X134711834Y-112182180D01*
X134678499Y-112148847D01*
X134672672Y-112144953D01*
X134667130Y-112140652D01*
X134607714Y-112110944D01*
X134903869Y-112110944D01*
X134906364Y-112127831D01*
X135073030Y-112594498D01*
X135081797Y-112609145D01*
X135083882Y-112610132D01*
X135084870Y-112612217D01*
X135098743Y-112617171D01*
X135112059Y-112623479D01*
X135114231Y-112622703D01*
X135116403Y-112623479D01*
X135129710Y-112617175D01*
X135143592Y-112612218D01*
X135144580Y-112610131D01*
X135146665Y-112609144D01*
X135155432Y-112594498D01*
X135322099Y-112127831D01*
X135324594Y-112110944D01*
X135310259Y-112080682D01*
X135278726Y-112069420D01*
X135248464Y-112083755D01*
X135239697Y-112098401D01*
X135114230Y-112449705D01*
X134988766Y-112098401D01*
X134979999Y-112083755D01*
X134949737Y-112069420D01*
X134918204Y-112080682D01*
X134903869Y-112110944D01*
X134607714Y-112110944D01*
X134600464Y-112107319D01*
X134598350Y-112106740D01*
X134597640Y-112106030D01*
X134590762Y-112104662D01*
X134584000Y-112102810D01*
X134583047Y-112103127D01*
X134580898Y-112102700D01*
X134577313Y-112102700D01*
X134747156Y-111908593D01*
X134753365Y-111897810D01*
X134754651Y-111896525D01*
X134754651Y-111895578D01*
X134755675Y-111893800D01*
X134754651Y-111878444D01*
X134754651Y-111863041D01*
X135440478Y-111863041D01*
X135440478Y-111896525D01*
X135464156Y-111920203D01*
X135480898Y-111923533D01*
X135817817Y-111923533D01*
X135647973Y-112117640D01*
X135641763Y-112128422D01*
X135640478Y-112129708D01*
X135640478Y-112130654D01*
X135639454Y-112132433D01*
X135640478Y-112147789D01*
X135640478Y-112163192D01*
X135641578Y-112164292D01*
X135641682Y-112165845D01*
X135653273Y-112175987D01*
X135664156Y-112186870D01*
X135666168Y-112187270D01*
X135666881Y-112187894D01*
X135668695Y-112187772D01*
X135680898Y-112190200D01*
X135770570Y-112190200D01*
X135821649Y-112215739D01*
X135844942Y-112239032D01*
X135870481Y-112290110D01*
X135870481Y-112436122D01*
X135844942Y-112487200D01*
X135821647Y-112510494D01*
X135770570Y-112536033D01*
X135591226Y-112536033D01*
X135540147Y-112510494D01*
X135511834Y-112482181D01*
X135497641Y-112472697D01*
X135464156Y-112472696D01*
X135440479Y-112496373D01*
X135440478Y-112529858D01*
X135449962Y-112544051D01*
X135483295Y-112577386D01*
X135489129Y-112581284D01*
X135494666Y-112585581D01*
X135561333Y-112618914D01*
X135563445Y-112619492D01*
X135564156Y-112620203D01*
X135571037Y-112621571D01*
X135577797Y-112623423D01*
X135578749Y-112623105D01*
X135580898Y-112623533D01*
X135780898Y-112623533D01*
X135783047Y-112623105D01*
X135784000Y-112623423D01*
X135790762Y-112621570D01*
X135797640Y-112620203D01*
X135798350Y-112619492D01*
X135800464Y-112618914D01*
X135867130Y-112585581D01*
X135872666Y-112581284D01*
X135878500Y-112577386D01*
X135911834Y-112544052D01*
X135915729Y-112538221D01*
X135920029Y-112532682D01*
X135953362Y-112466015D01*
X135953940Y-112463902D01*
X135954651Y-112463192D01*
X135956019Y-112456313D01*
X135957871Y-112449552D01*
X135957553Y-112448599D01*
X135957981Y-112446450D01*
X135957981Y-112279783D01*
X135957553Y-112277634D01*
X135957871Y-112276682D01*
X135956019Y-112269922D01*
X135954651Y-112263041D01*
X135953940Y-112262330D01*
X135953362Y-112260218D01*
X135920029Y-112193551D01*
X135915732Y-112188014D01*
X135911834Y-112182180D01*
X135878499Y-112148847D01*
X135872672Y-112144953D01*
X135867130Y-112140652D01*
X135800464Y-112107319D01*
X135798350Y-112106740D01*
X135797640Y-112106030D01*
X135790762Y-112104662D01*
X135784000Y-112102810D01*
X135783047Y-112103127D01*
X135780898Y-112102700D01*
X135777313Y-112102700D01*
X135947156Y-111908593D01*
X135953365Y-111897810D01*
X135954651Y-111896525D01*
X135954651Y-111895578D01*
X135955675Y-111893800D01*
X135954651Y-111878444D01*
X135954651Y-111863041D01*
X135953550Y-111861940D01*
X135953447Y-111860389D01*
X135941859Y-111850249D01*
X135930973Y-111839363D01*
X135928960Y-111838962D01*
X135928248Y-111838339D01*
X135926433Y-111838460D01*
X135914231Y-111836033D01*
X135480898Y-111836033D01*
X135464156Y-111839363D01*
X135440478Y-111863041D01*
X134754651Y-111863041D01*
X134753550Y-111861940D01*
X134753447Y-111860389D01*
X134741859Y-111850249D01*
X134730973Y-111839363D01*
X134728960Y-111838962D01*
X134728248Y-111838339D01*
X134726433Y-111838460D01*
X134714231Y-111836033D01*
X134280898Y-111836033D01*
X134264156Y-111839363D01*
X134240478Y-111863041D01*
X131587985Y-111863041D01*
X131564307Y-111839363D01*
X131547565Y-111836033D01*
X131214231Y-111836033D01*
X131203763Y-111838114D01*
X131201594Y-111837898D01*
X131200546Y-111838754D01*
X131197489Y-111839363D01*
X131187073Y-111849778D01*
X131175677Y-111859103D01*
X131174767Y-111862084D01*
X131173811Y-111863041D01*
X131173811Y-111865221D01*
X131170698Y-111875430D01*
X131137365Y-112208763D01*
X131026091Y-112208763D01*
X131026091Y-110983984D01*
X131103869Y-110983984D01*
X131106364Y-111000871D01*
X131273030Y-111467538D01*
X131281797Y-111482185D01*
X131283882Y-111483172D01*
X131284870Y-111485257D01*
X131298743Y-111490211D01*
X131312059Y-111496519D01*
X131314231Y-111495743D01*
X131316403Y-111496519D01*
X131329710Y-111490215D01*
X131343592Y-111485258D01*
X131344580Y-111483171D01*
X131346665Y-111482184D01*
X131355432Y-111467538D01*
X131479735Y-111119490D01*
X131670481Y-111119490D01*
X131670481Y-111319490D01*
X131670908Y-111321639D01*
X131670591Y-111322592D01*
X131672443Y-111329354D01*
X131673811Y-111336232D01*
X131674521Y-111336942D01*
X131675100Y-111339056D01*
X131708433Y-111405722D01*
X131712729Y-111411258D01*
X131716628Y-111417092D01*
X131749962Y-111450426D01*
X131755792Y-111454321D01*
X131761332Y-111458621D01*
X131827999Y-111491954D01*
X131830111Y-111492532D01*
X131830822Y-111493243D01*
X131837700Y-111494611D01*
X131844462Y-111496463D01*
X131845414Y-111496145D01*
X131847564Y-111496573D01*
X131947564Y-111496573D01*
X131949713Y-111496145D01*
X131950666Y-111496463D01*
X131957427Y-111494611D01*
X131964306Y-111493243D01*
X131965016Y-111492532D01*
X131967129Y-111491954D01*
X132033797Y-111458621D01*
X132039346Y-111454314D01*
X132045167Y-111450425D01*
X132078501Y-111417091D01*
X132082397Y-111411258D01*
X132086695Y-111405722D01*
X132120029Y-111339056D01*
X132120607Y-111336942D01*
X132121318Y-111336232D01*
X132122685Y-111329356D01*
X132124538Y-111322593D01*
X132124220Y-111321640D01*
X132124648Y-111319490D01*
X132124648Y-111119490D01*
X132124220Y-111117340D01*
X132124538Y-111116388D01*
X132122685Y-111109625D01*
X132121318Y-111102748D01*
X132120607Y-111102037D01*
X132120029Y-111099924D01*
X132086695Y-111033257D01*
X132082398Y-111027720D01*
X132078500Y-111021887D01*
X132045167Y-110988554D01*
X132039333Y-110984655D01*
X132033797Y-110980359D01*
X131967130Y-110947025D01*
X131965016Y-110946446D01*
X131964306Y-110945736D01*
X131957428Y-110944368D01*
X131950666Y-110942516D01*
X131949713Y-110942833D01*
X131947564Y-110942406D01*
X131847564Y-110942406D01*
X131845413Y-110942833D01*
X131844461Y-110942516D01*
X131837697Y-110944368D01*
X131830822Y-110945736D01*
X131830111Y-110946446D01*
X131827998Y-110947025D01*
X131761332Y-110980359D01*
X131755795Y-110984656D01*
X131749963Y-110988553D01*
X131716629Y-111021887D01*
X131712739Y-111027707D01*
X131708433Y-111033257D01*
X131675100Y-111099925D01*
X131674521Y-111102037D01*
X131673811Y-111102748D01*
X131672442Y-111109626D01*
X131670591Y-111116388D01*
X131670908Y-111117340D01*
X131670481Y-111119490D01*
X131479735Y-111119490D01*
X131522099Y-111000871D01*
X131524594Y-110983984D01*
X131510259Y-110953722D01*
X131478726Y-110942460D01*
X131448464Y-110956795D01*
X131439697Y-110971441D01*
X131314230Y-111322745D01*
X131188766Y-110971441D01*
X131179999Y-110956795D01*
X131149737Y-110942460D01*
X131118204Y-110953722D01*
X131103869Y-110983984D01*
X131026091Y-110983984D01*
X131026091Y-110752823D01*
X132337147Y-110752823D01*
X132337147Y-111352823D01*
X132337574Y-111354972D01*
X132337257Y-111355925D01*
X132339109Y-111362687D01*
X132340477Y-111369565D01*
X132341187Y-111370275D01*
X132341766Y-111372389D01*
X132375100Y-111439056D01*
X132380440Y-111445937D01*
X132381180Y-111448155D01*
X132383649Y-111450071D01*
X132385566Y-111452541D01*
X132387783Y-111453280D01*
X132394665Y-111458621D01*
X132461332Y-111491954D01*
X132477795Y-111496463D01*
X132509563Y-111485874D01*
X132524537Y-111455925D01*
X132513948Y-111424158D01*
X132500463Y-111413692D01*
X132446840Y-111386880D01*
X132424647Y-111342494D01*
X132424647Y-110969414D01*
X132607144Y-110969414D01*
X132607144Y-111002898D01*
X132630822Y-111026576D01*
X132647564Y-111029906D01*
X132703814Y-111029906D01*
X132703814Y-111352823D01*
X132704241Y-111354972D01*
X132703924Y-111355925D01*
X132705776Y-111362687D01*
X132707144Y-111369565D01*
X132707854Y-111370275D01*
X132708433Y-111372389D01*
X132741767Y-111439056D01*
X132747107Y-111445937D01*
X132747847Y-111448155D01*
X132750316Y-111450071D01*
X132752233Y-111452541D01*
X132754450Y-111453280D01*
X132761332Y-111458621D01*
X132827999Y-111491954D01*
X132830111Y-111492532D01*
X132830822Y-111493243D01*
X132837700Y-111494611D01*
X132844462Y-111496463D01*
X132845414Y-111496145D01*
X132847564Y-111496573D01*
X132914231Y-111496573D01*
X132930973Y-111493243D01*
X132954651Y-111469565D01*
X132954651Y-111436081D01*
X132930973Y-111412403D01*
X132914231Y-111409073D01*
X132857892Y-111409073D01*
X132813507Y-111386880D01*
X132791314Y-111342494D01*
X132791314Y-111286156D01*
X133070481Y-111286156D01*
X133070481Y-111352823D01*
X133070908Y-111354972D01*
X133070591Y-111355925D01*
X133072442Y-111362686D01*
X133073811Y-111369565D01*
X133074521Y-111370275D01*
X133075100Y-111372388D01*
X133108433Y-111439056D01*
X133113773Y-111445937D01*
X133114513Y-111448156D01*
X133116981Y-111450071D01*
X133118898Y-111452541D01*
X133121117Y-111453280D01*
X133127999Y-111458621D01*
X133194666Y-111491954D01*
X133196778Y-111492532D01*
X133197489Y-111493243D01*
X133204370Y-111494611D01*
X133211130Y-111496463D01*
X133212082Y-111496145D01*
X133214231Y-111496573D01*
X133380898Y-111496573D01*
X133383047Y-111496145D01*
X133384000Y-111496463D01*
X133390762Y-111494610D01*
X133397640Y-111493243D01*
X133398350Y-111492532D01*
X133400464Y-111491954D01*
X133419843Y-111482264D01*
X133430822Y-111493243D01*
X133464306Y-111493243D01*
X133487984Y-111469565D01*
X133491314Y-111452823D01*
X133491314Y-111119490D01*
X133703814Y-111119490D01*
X133703814Y-111319490D01*
X133704241Y-111321639D01*
X133703924Y-111322592D01*
X133705776Y-111329354D01*
X133707144Y-111336232D01*
X133707854Y-111336942D01*
X133708433Y-111339056D01*
X133741766Y-111405722D01*
X133746062Y-111411258D01*
X133749961Y-111417092D01*
X133783295Y-111450426D01*
X133789125Y-111454321D01*
X133794665Y-111458621D01*
X133861332Y-111491954D01*
X133863444Y-111492532D01*
X133864155Y-111493243D01*
X133871033Y-111494611D01*
X133877795Y-111496463D01*
X133878747Y-111496145D01*
X133880897Y-111496573D01*
X134014231Y-111496573D01*
X134016380Y-111496145D01*
X134017333Y-111496463D01*
X134024095Y-111494610D01*
X134030973Y-111493243D01*
X134031683Y-111492532D01*
X134033797Y-111491954D01*
X134037147Y-111490279D01*
X134037147Y-111542495D01*
X134011608Y-111593573D01*
X133988314Y-111616867D01*
X133937237Y-111642406D01*
X133857892Y-111642406D01*
X133800462Y-111613692D01*
X133783999Y-111609183D01*
X133752231Y-111619772D01*
X133737257Y-111649721D01*
X133747846Y-111681489D01*
X133761332Y-111691954D01*
X133827999Y-111725287D01*
X133830111Y-111725865D01*
X133830822Y-111726576D01*
X133837703Y-111727944D01*
X133844463Y-111729796D01*
X133845415Y-111729478D01*
X133847564Y-111729906D01*
X133947564Y-111729906D01*
X133949713Y-111729478D01*
X133950666Y-111729796D01*
X133957427Y-111727944D01*
X133964306Y-111726576D01*
X133965016Y-111725865D01*
X133967129Y-111725287D01*
X134033797Y-111691954D01*
X134039336Y-111687654D01*
X134045167Y-111683759D01*
X134078500Y-111650426D01*
X134082398Y-111644591D01*
X134086695Y-111639055D01*
X134120028Y-111572388D01*
X134120606Y-111570275D01*
X134121317Y-111569565D01*
X134122685Y-111562683D01*
X134124537Y-111555924D01*
X134124219Y-111554971D01*
X134124647Y-111552823D01*
X134124647Y-111086156D01*
X134337147Y-111086156D01*
X134337147Y-111352823D01*
X134337574Y-111354972D01*
X134337257Y-111355925D01*
X134339108Y-111362686D01*
X134340477Y-111369565D01*
X134341187Y-111370275D01*
X134341766Y-111372388D01*
X134375099Y-111439056D01*
X134380439Y-111445937D01*
X134381179Y-111448156D01*
X134383647Y-111450071D01*
X134385564Y-111452541D01*
X134387783Y-111453280D01*
X134394665Y-111458621D01*
X134461332Y-111491954D01*
X134463444Y-111492532D01*
X134464155Y-111493243D01*
X134471036Y-111494611D01*
X134477796Y-111496463D01*
X134478748Y-111496145D01*
X134480897Y-111496573D01*
X134614230Y-111496573D01*
X134616379Y-111496145D01*
X134617332Y-111496463D01*
X134624093Y-111494611D01*
X134630972Y-111493243D01*
X134631682Y-111492532D01*
X134633795Y-111491954D01*
X134700463Y-111458621D01*
X134713948Y-111448156D01*
X134724537Y-111416388D01*
X134709563Y-111386439D01*
X134677796Y-111375850D01*
X134661332Y-111380359D01*
X134603903Y-111409073D01*
X134491225Y-111409073D01*
X134446839Y-111386880D01*
X134424647Y-111342496D01*
X134424647Y-111255355D01*
X134722810Y-111195723D01*
X134728780Y-111193243D01*
X134730972Y-111193243D01*
X134732529Y-111191685D01*
X134738574Y-111189175D01*
X134745641Y-111178573D01*
X134754650Y-111169565D01*
X134755927Y-111163144D01*
X134757148Y-111161313D01*
X134756718Y-111159165D01*
X134757980Y-111152823D01*
X134757980Y-111086156D01*
X134757552Y-111084006D01*
X134757870Y-111083054D01*
X134756018Y-111076292D01*
X134754650Y-111069414D01*
X134753939Y-111068703D01*
X134753361Y-111066591D01*
X134720028Y-110999924D01*
X134714687Y-110993042D01*
X134713948Y-110990825D01*
X134711478Y-110988908D01*
X134709562Y-110986439D01*
X134708714Y-110986156D01*
X135503813Y-110986156D01*
X135503813Y-111452823D01*
X135507143Y-111469565D01*
X135530821Y-111493243D01*
X135564305Y-111493243D01*
X135587983Y-111469565D01*
X135591313Y-111452823D01*
X135591313Y-111129818D01*
X135613144Y-111086156D01*
X135903813Y-111086156D01*
X135903813Y-111352823D01*
X135904240Y-111354972D01*
X135903923Y-111355925D01*
X135905774Y-111362686D01*
X135907143Y-111369565D01*
X135907853Y-111370275D01*
X135908432Y-111372388D01*
X135941765Y-111439056D01*
X135947105Y-111445937D01*
X135947845Y-111448156D01*
X135950313Y-111450071D01*
X135952230Y-111452541D01*
X135954449Y-111453280D01*
X135961331Y-111458621D01*
X136027998Y-111491954D01*
X136030110Y-111492532D01*
X136030821Y-111493243D01*
X136037702Y-111494611D01*
X136044462Y-111496463D01*
X136045414Y-111496145D01*
X136047563Y-111496573D01*
X136180896Y-111496573D01*
X136183045Y-111496145D01*
X136183998Y-111496463D01*
X136190759Y-111494611D01*
X136197638Y-111493243D01*
X136198348Y-111492532D01*
X136200461Y-111491954D01*
X136267129Y-111458621D01*
X136280614Y-111448156D01*
X136291203Y-111416388D01*
X136276229Y-111386439D01*
X136244462Y-111375850D01*
X136227998Y-111380359D01*
X136170569Y-111409073D01*
X136057891Y-111409073D01*
X136013505Y-111386880D01*
X135991313Y-111342496D01*
X135991313Y-111255355D01*
X136289476Y-111195723D01*
X136295446Y-111193243D01*
X136297638Y-111193243D01*
X136299195Y-111191685D01*
X136305240Y-111189175D01*
X136312307Y-111178573D01*
X136321316Y-111169565D01*
X136322593Y-111163144D01*
X136323814Y-111161313D01*
X136323384Y-111159165D01*
X136324646Y-111152823D01*
X136324646Y-111119490D01*
X136503813Y-111119490D01*
X136503813Y-111319490D01*
X136504240Y-111321639D01*
X136503923Y-111322592D01*
X136505775Y-111329354D01*
X136507143Y-111336232D01*
X136507853Y-111336942D01*
X136508432Y-111339056D01*
X136541765Y-111405722D01*
X136546061Y-111411258D01*
X136549960Y-111417092D01*
X136583294Y-111450426D01*
X136589124Y-111454321D01*
X136594664Y-111458621D01*
X136661331Y-111491954D01*
X136663443Y-111492532D01*
X136664154Y-111493243D01*
X136671032Y-111494611D01*
X136677794Y-111496463D01*
X136678746Y-111496145D01*
X136680896Y-111496573D01*
X136814230Y-111496573D01*
X136816379Y-111496145D01*
X136817332Y-111496463D01*
X136824094Y-111494610D01*
X136830972Y-111493243D01*
X136831682Y-111492532D01*
X136833796Y-111491954D01*
X136837146Y-111490279D01*
X136837146Y-111542495D01*
X136811607Y-111593573D01*
X136788313Y-111616867D01*
X136737236Y-111642406D01*
X136657891Y-111642406D01*
X136600461Y-111613692D01*
X136583998Y-111609183D01*
X136552230Y-111619772D01*
X136537256Y-111649721D01*
X136547845Y-111681489D01*
X136561331Y-111691954D01*
X136627998Y-111725287D01*
X136630110Y-111725865D01*
X136630821Y-111726576D01*
X136637702Y-111727944D01*
X136644462Y-111729796D01*
X136645414Y-111729478D01*
X136647563Y-111729906D01*
X136747563Y-111729906D01*
X136749712Y-111729478D01*
X136750665Y-111729796D01*
X136757426Y-111727944D01*
X136764305Y-111726576D01*
X136765015Y-111725865D01*
X136767128Y-111725287D01*
X136833796Y-111691954D01*
X136839335Y-111687654D01*
X136845166Y-111683759D01*
X136878499Y-111650426D01*
X136882397Y-111644591D01*
X136886694Y-111639055D01*
X136920027Y-111572388D01*
X136920605Y-111570275D01*
X136921316Y-111569565D01*
X136922684Y-111562683D01*
X136924536Y-111555924D01*
X136924218Y-111554971D01*
X136924646Y-111552823D01*
X136924646Y-110986156D01*
X136921316Y-110969414D01*
X136897638Y-110945736D01*
X136864154Y-110945736D01*
X136853175Y-110956714D01*
X136833796Y-110947025D01*
X136831682Y-110946446D01*
X136830972Y-110945736D01*
X136824094Y-110944368D01*
X136817332Y-110942516D01*
X136816379Y-110942833D01*
X136814230Y-110942406D01*
X136680896Y-110942406D01*
X136678745Y-110942833D01*
X136677793Y-110942516D01*
X136671029Y-110944368D01*
X136664154Y-110945736D01*
X136663443Y-110946446D01*
X136661330Y-110947025D01*
X136594664Y-110980359D01*
X136589127Y-110984656D01*
X136583295Y-110988553D01*
X136549961Y-111021887D01*
X136546071Y-111027707D01*
X136541765Y-111033257D01*
X136508432Y-111099925D01*
X136507853Y-111102037D01*
X136507143Y-111102748D01*
X136505774Y-111109626D01*
X136503923Y-111116388D01*
X136504240Y-111117340D01*
X136503813Y-111119490D01*
X136324646Y-111119490D01*
X136324646Y-111086156D01*
X136324218Y-111084006D01*
X136324536Y-111083054D01*
X136322684Y-111076292D01*
X136321316Y-111069414D01*
X136320605Y-111068703D01*
X136320027Y-111066591D01*
X136286694Y-110999924D01*
X136281353Y-110993042D01*
X136280614Y-110990825D01*
X136278144Y-110988908D01*
X136276228Y-110986439D01*
X136274010Y-110985699D01*
X136267129Y-110980359D01*
X136200462Y-110947025D01*
X136198348Y-110946446D01*
X136197638Y-110945736D01*
X136190760Y-110944368D01*
X136183998Y-110942516D01*
X136183045Y-110942833D01*
X136180896Y-110942406D01*
X136047563Y-110942406D01*
X136045413Y-110942833D01*
X136044461Y-110942516D01*
X136037698Y-110944368D01*
X136030821Y-110945736D01*
X136030110Y-110946446D01*
X136027997Y-110947025D01*
X135961330Y-110980359D01*
X135954448Y-110985699D01*
X135952231Y-110986439D01*
X135950314Y-110988908D01*
X135947845Y-110990825D01*
X135947105Y-110993042D01*
X135941765Y-110999924D01*
X135908432Y-111066590D01*
X135907853Y-111068703D01*
X135907143Y-111069414D01*
X135905775Y-111076291D01*
X135903923Y-111083054D01*
X135904240Y-111084006D01*
X135903813Y-111086156D01*
X135613144Y-111086156D01*
X135616852Y-111078739D01*
X135640146Y-111055445D01*
X135691225Y-111029906D01*
X135747563Y-111029906D01*
X135764305Y-111026576D01*
X135787983Y-111002898D01*
X135787983Y-110969414D01*
X135764305Y-110945736D01*
X135747563Y-110942406D01*
X135680897Y-110942406D01*
X135678747Y-110942833D01*
X135677795Y-110942516D01*
X135671032Y-110944368D01*
X135664155Y-110945736D01*
X135663444Y-110946446D01*
X135661331Y-110947025D01*
X135594664Y-110980359D01*
X135590762Y-110983387D01*
X135587983Y-110969414D01*
X135564305Y-110945736D01*
X135530821Y-110945736D01*
X135507143Y-110969414D01*
X135503813Y-110986156D01*
X134708714Y-110986156D01*
X134707344Y-110985699D01*
X134700463Y-110980359D01*
X134633796Y-110947025D01*
X134631682Y-110946446D01*
X134630972Y-110945736D01*
X134624094Y-110944368D01*
X134617332Y-110942516D01*
X134616379Y-110942833D01*
X134614230Y-110942406D01*
X134480897Y-110942406D01*
X134478747Y-110942833D01*
X134477795Y-110942516D01*
X134471032Y-110944368D01*
X134464155Y-110945736D01*
X134463444Y-110946446D01*
X134461331Y-110947025D01*
X134394664Y-110980359D01*
X134387782Y-110985699D01*
X134385565Y-110986439D01*
X134383648Y-110988908D01*
X134381179Y-110990825D01*
X134380439Y-110993042D01*
X134375099Y-110999924D01*
X134341766Y-111066590D01*
X134341187Y-111068703D01*
X134340477Y-111069414D01*
X134339109Y-111076291D01*
X134337257Y-111083054D01*
X134337574Y-111084006D01*
X134337147Y-111086156D01*
X134124647Y-111086156D01*
X134124647Y-110986156D01*
X134121317Y-110969414D01*
X134097639Y-110945736D01*
X134064155Y-110945736D01*
X134053176Y-110956714D01*
X134033797Y-110947025D01*
X134031683Y-110946446D01*
X134030973Y-110945736D01*
X134024095Y-110944368D01*
X134017333Y-110942516D01*
X134016380Y-110942833D01*
X134014231Y-110942406D01*
X133880897Y-110942406D01*
X133878746Y-110942833D01*
X133877794Y-110942516D01*
X133871030Y-110944368D01*
X133864155Y-110945736D01*
X133863444Y-110946446D01*
X133861331Y-110947025D01*
X133794665Y-110980359D01*
X133789128Y-110984656D01*
X133783296Y-110988553D01*
X133749962Y-111021887D01*
X133746072Y-111027707D01*
X133741766Y-111033257D01*
X133708433Y-111099925D01*
X133707854Y-111102037D01*
X133707144Y-111102748D01*
X133705775Y-111109626D01*
X133703924Y-111116388D01*
X133704241Y-111117340D01*
X133703814Y-111119490D01*
X133491314Y-111119490D01*
X133491314Y-111086156D01*
X133490886Y-111084006D01*
X133491204Y-111083054D01*
X133489352Y-111076292D01*
X133487984Y-111069414D01*
X133487273Y-111068703D01*
X133486695Y-111066591D01*
X133453362Y-110999924D01*
X133448021Y-110993042D01*
X133447282Y-110990825D01*
X133444812Y-110988908D01*
X133442896Y-110986439D01*
X133440678Y-110985699D01*
X133433797Y-110980359D01*
X133367130Y-110947025D01*
X133365016Y-110946446D01*
X133364306Y-110945736D01*
X133357428Y-110944368D01*
X133350666Y-110942516D01*
X133349713Y-110942833D01*
X133347564Y-110942406D01*
X133214231Y-110942406D01*
X133212081Y-110942833D01*
X133211129Y-110942516D01*
X133204366Y-110944368D01*
X133197489Y-110945736D01*
X133196778Y-110946446D01*
X133194665Y-110947025D01*
X133127998Y-110980359D01*
X133114513Y-110990825D01*
X133103924Y-111022592D01*
X133118899Y-111052541D01*
X133150666Y-111063130D01*
X133167130Y-111058621D01*
X133224559Y-111029906D01*
X133337236Y-111029906D01*
X133381621Y-111052099D01*
X133403814Y-111096484D01*
X133403814Y-111125784D01*
X133370570Y-111142406D01*
X133214231Y-111142406D01*
X133212081Y-111142833D01*
X133211129Y-111142516D01*
X133204366Y-111144368D01*
X133197489Y-111145736D01*
X133196778Y-111146446D01*
X133194665Y-111147025D01*
X133127998Y-111180359D01*
X133121116Y-111185699D01*
X133118899Y-111186439D01*
X133116982Y-111188908D01*
X133114513Y-111190825D01*
X133113773Y-111193042D01*
X133108433Y-111199924D01*
X133075100Y-111266590D01*
X133074521Y-111268703D01*
X133073811Y-111269414D01*
X133072443Y-111276291D01*
X133070591Y-111283054D01*
X133070908Y-111284006D01*
X133070481Y-111286156D01*
X132791314Y-111286156D01*
X132791314Y-111029906D01*
X132914231Y-111029906D01*
X132930973Y-111026576D01*
X132954651Y-111002898D01*
X132954651Y-110969414D01*
X132930973Y-110945736D01*
X132914231Y-110942406D01*
X132791314Y-110942406D01*
X132791314Y-110752823D01*
X132787984Y-110736081D01*
X132764306Y-110712403D01*
X132730822Y-110712403D01*
X132707144Y-110736081D01*
X132703814Y-110752823D01*
X132703814Y-110942406D01*
X132647564Y-110942406D01*
X132630822Y-110945736D01*
X132607144Y-110969414D01*
X132424647Y-110969414D01*
X132424647Y-110752823D01*
X132421317Y-110736081D01*
X132397639Y-110712403D01*
X132364155Y-110712403D01*
X132340477Y-110736081D01*
X132337147Y-110752823D01*
X131026091Y-110752823D01*
X131026091Y-110634625D01*
X137002424Y-110634625D01*
X137002424Y-112701311D01*
G37*
G36*
X163293814Y-94019411D02*
G01*
X163260570Y-94036033D01*
X163114559Y-94036033D01*
X163070173Y-94013840D01*
X163047981Y-93969456D01*
X163047981Y-93923443D01*
X163070172Y-93879059D01*
X163114559Y-93856866D01*
X163270898Y-93856866D01*
X163273047Y-93856438D01*
X163274000Y-93856756D01*
X163280762Y-93854903D01*
X163287640Y-93853536D01*
X163288350Y-93852825D01*
X163290464Y-93852247D01*
X163293814Y-93850572D01*
X163293814Y-94019411D01*
G37*
G36*
X167327146Y-94019411D02*
G01*
X167293902Y-94036033D01*
X167147891Y-94036033D01*
X167103505Y-94013840D01*
X167081313Y-93969456D01*
X167081313Y-93923443D01*
X167103504Y-93879059D01*
X167147891Y-93856866D01*
X167304230Y-93856866D01*
X167306379Y-93856438D01*
X167307332Y-93856756D01*
X167314094Y-93854903D01*
X167320972Y-93853536D01*
X167321682Y-93852825D01*
X167323796Y-93852247D01*
X167327146Y-93850572D01*
X167327146Y-94019411D01*
G37*
G36*
X167960479Y-93673488D02*
G01*
X167960479Y-94019411D01*
X167927235Y-94036033D01*
X167814557Y-94036033D01*
X167763479Y-94010494D01*
X167740184Y-93987199D01*
X167714646Y-93936122D01*
X167714646Y-93756776D01*
X167740184Y-93705698D01*
X167763478Y-93682406D01*
X167814557Y-93656866D01*
X167927235Y-93656866D01*
X167960479Y-93673488D01*
G37*
G36*
X170727144Y-93673488D02*
G01*
X170727144Y-94019411D01*
X170693900Y-94036033D01*
X170581222Y-94036033D01*
X170530144Y-94010494D01*
X170506849Y-93987199D01*
X170481311Y-93936122D01*
X170481311Y-93756776D01*
X170506849Y-93705698D01*
X170530143Y-93682406D01*
X170581222Y-93656866D01*
X170693900Y-93656866D01*
X170727144Y-93673488D01*
G37*
G36*
X173704950Y-93679059D02*
G01*
X173727143Y-93723444D01*
X173727143Y-93743917D01*
X173481310Y-93793083D01*
X173481310Y-93723443D01*
X173503501Y-93679059D01*
X173547888Y-93656866D01*
X173660565Y-93656866D01*
X173704950Y-93679059D01*
G37*
G36*
X166678314Y-93449071D02*
G01*
X166701606Y-93472365D01*
X166727146Y-93523444D01*
X166727146Y-93602788D01*
X166701607Y-93653866D01*
X166678313Y-93677160D01*
X166627235Y-93702700D01*
X166414646Y-93702700D01*
X166414646Y-93423533D01*
X166627236Y-93423533D01*
X166678314Y-93449071D01*
G37*
G36*
X174459088Y-94267978D02*
G01*
X162286033Y-94267978D01*
X162286033Y-94129708D01*
X165630477Y-94129708D01*
X165630477Y-94163192D01*
X165654155Y-94186870D01*
X165670897Y-94190200D01*
X166204230Y-94190200D01*
X166220972Y-94186870D01*
X166244650Y-94163192D01*
X166244650Y-94129708D01*
X168763809Y-94129708D01*
X168763809Y-94163192D01*
X168787487Y-94186870D01*
X168804229Y-94190200D01*
X169337562Y-94190200D01*
X169354304Y-94186870D01*
X169377982Y-94163192D01*
X169377982Y-94129708D01*
X169354304Y-94106030D01*
X169337562Y-94102700D01*
X168804229Y-94102700D01*
X168787487Y-94106030D01*
X168763809Y-94129708D01*
X166244650Y-94129708D01*
X166220972Y-94106030D01*
X166204230Y-94102700D01*
X165670897Y-94102700D01*
X165654155Y-94106030D01*
X165630477Y-94129708D01*
X162286033Y-94129708D01*
X162286033Y-93363041D01*
X162363811Y-93363041D01*
X162363811Y-93396525D01*
X162387489Y-93420203D01*
X162404231Y-93423533D01*
X162560481Y-93423533D01*
X162560481Y-94079783D01*
X162563811Y-94096525D01*
X162587489Y-94120203D01*
X162620973Y-94120203D01*
X162644651Y-94096525D01*
X162647981Y-94079783D01*
X162647981Y-93913116D01*
X162960481Y-93913116D01*
X162960481Y-93979783D01*
X162960908Y-93981932D01*
X162960591Y-93982885D01*
X162962442Y-93989646D01*
X162963811Y-93996525D01*
X162964521Y-93997235D01*
X162965100Y-93999348D01*
X162998433Y-94066016D01*
X163003773Y-94072897D01*
X163004513Y-94075116D01*
X163006981Y-94077031D01*
X163008898Y-94079501D01*
X163011117Y-94080240D01*
X163017999Y-94085581D01*
X163084666Y-94118914D01*
X163086778Y-94119492D01*
X163087489Y-94120203D01*
X163094370Y-94121571D01*
X163101130Y-94123423D01*
X163102082Y-94123105D01*
X163104231Y-94123533D01*
X163270898Y-94123533D01*
X163273047Y-94123105D01*
X163274000Y-94123423D01*
X163280762Y-94121570D01*
X163287640Y-94120203D01*
X163288350Y-94119492D01*
X163290464Y-94118914D01*
X163309843Y-94109224D01*
X163320822Y-94120203D01*
X163354306Y-94120203D01*
X163377984Y-94096525D01*
X163381314Y-94079783D01*
X163381314Y-93713116D01*
X163380886Y-93710966D01*
X163381204Y-93710014D01*
X163379352Y-93703252D01*
X163377984Y-93696374D01*
X163377273Y-93695663D01*
X163376695Y-93693551D01*
X163343362Y-93626884D01*
X163338021Y-93620002D01*
X163337282Y-93617785D01*
X163334812Y-93615868D01*
X163332896Y-93613399D01*
X163332048Y-93613116D01*
X163627147Y-93613116D01*
X163627147Y-94079783D01*
X163630477Y-94096525D01*
X163654155Y-94120203D01*
X163687639Y-94120203D01*
X163711317Y-94096525D01*
X163714647Y-94079783D01*
X163714647Y-93697904D01*
X163730146Y-93682406D01*
X163781225Y-93656866D01*
X163860569Y-93656866D01*
X163904954Y-93679059D01*
X163927147Y-93723444D01*
X163927147Y-94079783D01*
X163930477Y-94096525D01*
X163954155Y-94120203D01*
X163987639Y-94120203D01*
X164011317Y-94096525D01*
X164014647Y-94079783D01*
X164014647Y-93723444D01*
X164036840Y-93679059D01*
X164081225Y-93656866D01*
X164160569Y-93656866D01*
X164204954Y-93679059D01*
X164227147Y-93723444D01*
X164227147Y-94079783D01*
X164230477Y-94096525D01*
X164254155Y-94120203D01*
X164287639Y-94120203D01*
X164311317Y-94096525D01*
X164314647Y-94079783D01*
X164314647Y-93713116D01*
X164314219Y-93710966D01*
X164314537Y-93710014D01*
X164312685Y-93703252D01*
X164311317Y-93696374D01*
X164310606Y-93695663D01*
X164310028Y-93693551D01*
X164276695Y-93626884D01*
X164271354Y-93620002D01*
X164270615Y-93617785D01*
X164268145Y-93615868D01*
X164266229Y-93613399D01*
X164265381Y-93613116D01*
X164560480Y-93613116D01*
X164560480Y-94079783D01*
X164563810Y-94096525D01*
X164587488Y-94120203D01*
X164620972Y-94120203D01*
X164644650Y-94096525D01*
X164647980Y-94079783D01*
X164647980Y-93713116D01*
X164860480Y-93713116D01*
X164860480Y-93746450D01*
X164860907Y-93748599D01*
X164860590Y-93749552D01*
X164862442Y-93756314D01*
X164863810Y-93763192D01*
X164864520Y-93763902D01*
X164865099Y-93766016D01*
X164898432Y-93832682D01*
X164903772Y-93839563D01*
X164904512Y-93841781D01*
X164906981Y-93843697D01*
X164908898Y-93846167D01*
X164911115Y-93846906D01*
X164917997Y-93852247D01*
X164984664Y-93885581D01*
X164986777Y-93886159D01*
X164987488Y-93886870D01*
X164994365Y-93888237D01*
X165001128Y-93890090D01*
X165002080Y-93889772D01*
X165004230Y-93890200D01*
X165093903Y-93890200D01*
X165138287Y-93912392D01*
X165160480Y-93956777D01*
X165160480Y-93969455D01*
X165138287Y-94013840D01*
X165093903Y-94036033D01*
X164981225Y-94036033D01*
X164923795Y-94007319D01*
X164907332Y-94002810D01*
X164875564Y-94013399D01*
X164860590Y-94043348D01*
X164871179Y-94075116D01*
X164884665Y-94085581D01*
X164951332Y-94118914D01*
X164953444Y-94119492D01*
X164954155Y-94120203D01*
X164961036Y-94121571D01*
X164967796Y-94123423D01*
X164968748Y-94123105D01*
X164970897Y-94123533D01*
X165104230Y-94123533D01*
X165106379Y-94123105D01*
X165107332Y-94123423D01*
X165114093Y-94121571D01*
X165120972Y-94120203D01*
X165121682Y-94119492D01*
X165123795Y-94118914D01*
X165190463Y-94085581D01*
X165197344Y-94080240D01*
X165199563Y-94079501D01*
X165201478Y-94077032D01*
X165203948Y-94075116D01*
X165204687Y-94072896D01*
X165210028Y-94066015D01*
X165243361Y-93999348D01*
X165243939Y-93997235D01*
X165244650Y-93996525D01*
X165246018Y-93989643D01*
X165247870Y-93982884D01*
X165247552Y-93981931D01*
X165247980Y-93979783D01*
X165247980Y-93946450D01*
X165247552Y-93944301D01*
X165247870Y-93943349D01*
X165246018Y-93936589D01*
X165244650Y-93929708D01*
X165243939Y-93928997D01*
X165243361Y-93926885D01*
X165210028Y-93860218D01*
X165204687Y-93853336D01*
X165203948Y-93851117D01*
X165201478Y-93849200D01*
X165199563Y-93846732D01*
X165197344Y-93845992D01*
X165190463Y-93840652D01*
X165123795Y-93807319D01*
X165121682Y-93806740D01*
X165120972Y-93806030D01*
X165114093Y-93804661D01*
X165107332Y-93802810D01*
X165106379Y-93803127D01*
X165104230Y-93802700D01*
X165014558Y-93802700D01*
X164970171Y-93780506D01*
X164947980Y-93736122D01*
X164947980Y-93723443D01*
X164970171Y-93679059D01*
X165014558Y-93656866D01*
X165093902Y-93656866D01*
X165151331Y-93685581D01*
X165167795Y-93690090D01*
X165199562Y-93679501D01*
X165214537Y-93649552D01*
X165203948Y-93617785D01*
X165197932Y-93613116D01*
X165460480Y-93613116D01*
X165460480Y-94079783D01*
X165463810Y-94096525D01*
X165487488Y-94120203D01*
X165520972Y-94120203D01*
X165544650Y-94096525D01*
X165547980Y-94079783D01*
X165547980Y-93613116D01*
X165544650Y-93596374D01*
X165520972Y-93572696D01*
X165487488Y-93572696D01*
X165463810Y-93596374D01*
X165460480Y-93613116D01*
X165197932Y-93613116D01*
X165190463Y-93607319D01*
X165123796Y-93573985D01*
X165121682Y-93573406D01*
X165120972Y-93572696D01*
X165114094Y-93571328D01*
X165107332Y-93569476D01*
X165106379Y-93569793D01*
X165104230Y-93569366D01*
X165004230Y-93569366D01*
X165002080Y-93569793D01*
X165001128Y-93569476D01*
X164994365Y-93571328D01*
X164987488Y-93572696D01*
X164986777Y-93573406D01*
X164984664Y-93573985D01*
X164917997Y-93607319D01*
X164911115Y-93612659D01*
X164908898Y-93613399D01*
X164906981Y-93615868D01*
X164904512Y-93617785D01*
X164903772Y-93620002D01*
X164898432Y-93626884D01*
X164865099Y-93693550D01*
X164864520Y-93695663D01*
X164863810Y-93696374D01*
X164862442Y-93703251D01*
X164860590Y-93710014D01*
X164860907Y-93710966D01*
X164860480Y-93713116D01*
X164647980Y-93713116D01*
X164647980Y-93613116D01*
X164644650Y-93596374D01*
X164620972Y-93572696D01*
X164587488Y-93572696D01*
X164563810Y-93596374D01*
X164560480Y-93613116D01*
X164265381Y-93613116D01*
X164264011Y-93612659D01*
X164257130Y-93607319D01*
X164190463Y-93573985D01*
X164188349Y-93573406D01*
X164187639Y-93572696D01*
X164180761Y-93571328D01*
X164173999Y-93569476D01*
X164173046Y-93569793D01*
X164170897Y-93569366D01*
X164070897Y-93569366D01*
X164068746Y-93569793D01*
X164067794Y-93569476D01*
X164061030Y-93571328D01*
X164054155Y-93572696D01*
X164053444Y-93573406D01*
X164051331Y-93573985D01*
X163984665Y-93607319D01*
X163977783Y-93612659D01*
X163975566Y-93613399D01*
X163973649Y-93615868D01*
X163971180Y-93617785D01*
X163970897Y-93618632D01*
X163970615Y-93617785D01*
X163968145Y-93615868D01*
X163966229Y-93613399D01*
X163964011Y-93612659D01*
X163957130Y-93607319D01*
X163890463Y-93573985D01*
X163888349Y-93573406D01*
X163887639Y-93572696D01*
X163880761Y-93571328D01*
X163873999Y-93569476D01*
X163873046Y-93569793D01*
X163870897Y-93569366D01*
X163770897Y-93569366D01*
X163768746Y-93569793D01*
X163767794Y-93569476D01*
X163761030Y-93571328D01*
X163754155Y-93572696D01*
X163753444Y-93573406D01*
X163751331Y-93573985D01*
X163709729Y-93594786D01*
X163687639Y-93572696D01*
X163654155Y-93572696D01*
X163630477Y-93596374D01*
X163627147Y-93613116D01*
X163332048Y-93613116D01*
X163330678Y-93612659D01*
X163323797Y-93607319D01*
X163257130Y-93573985D01*
X163255016Y-93573406D01*
X163254306Y-93572696D01*
X163247428Y-93571328D01*
X163240666Y-93569476D01*
X163239713Y-93569793D01*
X163237564Y-93569366D01*
X163104231Y-93569366D01*
X163102081Y-93569793D01*
X163101129Y-93569476D01*
X163094366Y-93571328D01*
X163087489Y-93572696D01*
X163086778Y-93573406D01*
X163084665Y-93573985D01*
X163017998Y-93607319D01*
X163004513Y-93617785D01*
X162993924Y-93649552D01*
X163008899Y-93679501D01*
X163040666Y-93690090D01*
X163057130Y-93685581D01*
X163114559Y-93656866D01*
X163227236Y-93656866D01*
X163271621Y-93679059D01*
X163293814Y-93723444D01*
X163293814Y-93752744D01*
X163260570Y-93769366D01*
X163104231Y-93769366D01*
X163102081Y-93769793D01*
X163101129Y-93769476D01*
X163094366Y-93771328D01*
X163087489Y-93772696D01*
X163086778Y-93773406D01*
X163084665Y-93773985D01*
X163017998Y-93807319D01*
X163011116Y-93812659D01*
X163008899Y-93813399D01*
X163006982Y-93815868D01*
X163004513Y-93817785D01*
X163003773Y-93820002D01*
X162998433Y-93826884D01*
X162965100Y-93893550D01*
X162964521Y-93895663D01*
X162963811Y-93896374D01*
X162962443Y-93903251D01*
X162960591Y-93910014D01*
X162960908Y-93910966D01*
X162960481Y-93913116D01*
X162647981Y-93913116D01*
X162647981Y-93423533D01*
X162804231Y-93423533D01*
X162820973Y-93420203D01*
X162844651Y-93396525D01*
X162844651Y-93396373D01*
X164530477Y-93396373D01*
X164530477Y-93429859D01*
X164530479Y-93429861D01*
X164539961Y-93444051D01*
X164573294Y-93477386D01*
X164587487Y-93486870D01*
X164587488Y-93486870D01*
X164620972Y-93486870D01*
X164620973Y-93486870D01*
X164635166Y-93477386D01*
X164668500Y-93444052D01*
X164677983Y-93429859D01*
X164677984Y-93429858D01*
X164677984Y-93396373D01*
X165430477Y-93396373D01*
X165430477Y-93429859D01*
X165430479Y-93429861D01*
X165439961Y-93444051D01*
X165473294Y-93477386D01*
X165487487Y-93486870D01*
X165487488Y-93486870D01*
X165520972Y-93486870D01*
X165520973Y-93486870D01*
X165535166Y-93477386D01*
X165568500Y-93444052D01*
X165577983Y-93429859D01*
X165577984Y-93429858D01*
X165577984Y-93396373D01*
X165568500Y-93382180D01*
X165566103Y-93379783D01*
X166327146Y-93379783D01*
X166327146Y-94079783D01*
X166330476Y-94096525D01*
X166354154Y-94120203D01*
X166387638Y-94120203D01*
X166411316Y-94096525D01*
X166414646Y-94079783D01*
X166414646Y-93790200D01*
X166514785Y-93790200D01*
X166735055Y-94104872D01*
X166747384Y-94116678D01*
X166780360Y-94122497D01*
X166807791Y-94103296D01*
X166813610Y-94070319D01*
X166806738Y-94054694D01*
X166707633Y-93913116D01*
X166993813Y-93913116D01*
X166993813Y-93979783D01*
X166994240Y-93981932D01*
X166993923Y-93982885D01*
X166995774Y-93989646D01*
X166997143Y-93996525D01*
X166997853Y-93997235D01*
X166998432Y-93999348D01*
X167031765Y-94066016D01*
X167037105Y-94072897D01*
X167037845Y-94075116D01*
X167040313Y-94077031D01*
X167042230Y-94079501D01*
X167044449Y-94080240D01*
X167051331Y-94085581D01*
X167117998Y-94118914D01*
X167120110Y-94119492D01*
X167120821Y-94120203D01*
X167127702Y-94121571D01*
X167134462Y-94123423D01*
X167135414Y-94123105D01*
X167137563Y-94123533D01*
X167304230Y-94123533D01*
X167306379Y-94123105D01*
X167307332Y-94123423D01*
X167314094Y-94121570D01*
X167320972Y-94120203D01*
X167321682Y-94119492D01*
X167323796Y-94118914D01*
X167343175Y-94109224D01*
X167354154Y-94120203D01*
X167387638Y-94120203D01*
X167411316Y-94096525D01*
X167414646Y-94079783D01*
X167414646Y-93746450D01*
X167627146Y-93746450D01*
X167627146Y-93946450D01*
X167627573Y-93948599D01*
X167627256Y-93949552D01*
X167629108Y-93956314D01*
X167630476Y-93963192D01*
X167631186Y-93963902D01*
X167631765Y-93966016D01*
X167665098Y-94032682D01*
X167669394Y-94038218D01*
X167673293Y-94044052D01*
X167706627Y-94077386D01*
X167712457Y-94081281D01*
X167717997Y-94085581D01*
X167784664Y-94118914D01*
X167786776Y-94119492D01*
X167787487Y-94120203D01*
X167794365Y-94121571D01*
X167801127Y-94123423D01*
X167802079Y-94123105D01*
X167804229Y-94123533D01*
X167937563Y-94123533D01*
X167939712Y-94123105D01*
X167940665Y-94123423D01*
X167947427Y-94121570D01*
X167954305Y-94120203D01*
X167955015Y-94119492D01*
X167957129Y-94118914D01*
X167976508Y-94109224D01*
X167987487Y-94120203D01*
X168020971Y-94120203D01*
X168044649Y-94096525D01*
X168047979Y-94079783D01*
X168047979Y-93613116D01*
X168293812Y-93613116D01*
X168293812Y-93979783D01*
X168294239Y-93981932D01*
X168293922Y-93982885D01*
X168295774Y-93989647D01*
X168297142Y-93996525D01*
X168297852Y-93997235D01*
X168298431Y-93999349D01*
X168331765Y-94066016D01*
X168337105Y-94072897D01*
X168337845Y-94075115D01*
X168340314Y-94077031D01*
X168342231Y-94079501D01*
X168344448Y-94080240D01*
X168351330Y-94085581D01*
X168417997Y-94118914D01*
X168420109Y-94119492D01*
X168420820Y-94120203D01*
X168427698Y-94121571D01*
X168434460Y-94123423D01*
X168435412Y-94123105D01*
X168437562Y-94123533D01*
X168537562Y-94123533D01*
X168539711Y-94123105D01*
X168540664Y-94123423D01*
X168547425Y-94121571D01*
X168554304Y-94120203D01*
X168555014Y-94119492D01*
X168557127Y-94118914D01*
X168598730Y-94098113D01*
X168620820Y-94120203D01*
X168654304Y-94120203D01*
X168677982Y-94096525D01*
X168681312Y-94079783D01*
X168681312Y-93613116D01*
X168677982Y-93596374D01*
X168654304Y-93572696D01*
X168620820Y-93572696D01*
X168597142Y-93596374D01*
X168593812Y-93613116D01*
X168593812Y-93994994D01*
X168578313Y-94010494D01*
X168527235Y-94036033D01*
X168447890Y-94036033D01*
X168403505Y-94013840D01*
X168381312Y-93969454D01*
X168381312Y-93613116D01*
X168377982Y-93596374D01*
X168354304Y-93572696D01*
X168320820Y-93572696D01*
X168297142Y-93596374D01*
X168293812Y-93613116D01*
X168047979Y-93613116D01*
X168047979Y-93379783D01*
X169460478Y-93379783D01*
X169460478Y-94079783D01*
X169463808Y-94096525D01*
X169487486Y-94120203D01*
X169520970Y-94120203D01*
X169544648Y-94096525D01*
X169547978Y-94079783D01*
X169547978Y-93613116D01*
X169793811Y-93613116D01*
X169793811Y-94079783D01*
X169797141Y-94096525D01*
X169820819Y-94120203D01*
X169854303Y-94120203D01*
X169877981Y-94096525D01*
X169881311Y-94079783D01*
X169881311Y-93697904D01*
X169896810Y-93682406D01*
X169947889Y-93656866D01*
X170027233Y-93656866D01*
X170071618Y-93679059D01*
X170093811Y-93723444D01*
X170093811Y-94079783D01*
X170097141Y-94096525D01*
X170120819Y-94120203D01*
X170154303Y-94120203D01*
X170177981Y-94096525D01*
X170181311Y-94079783D01*
X170181311Y-93746450D01*
X170393811Y-93746450D01*
X170393811Y-93946450D01*
X170394238Y-93948599D01*
X170393921Y-93949552D01*
X170395773Y-93956314D01*
X170397141Y-93963192D01*
X170397851Y-93963902D01*
X170398430Y-93966016D01*
X170431763Y-94032682D01*
X170436059Y-94038218D01*
X170439958Y-94044052D01*
X170473292Y-94077386D01*
X170479122Y-94081281D01*
X170484662Y-94085581D01*
X170551329Y-94118914D01*
X170553441Y-94119492D01*
X170554152Y-94120203D01*
X170561030Y-94121571D01*
X170567792Y-94123423D01*
X170568744Y-94123105D01*
X170570894Y-94123533D01*
X170704228Y-94123533D01*
X170706377Y-94123105D01*
X170707330Y-94123423D01*
X170714092Y-94121570D01*
X170720970Y-94120203D01*
X170721680Y-94119492D01*
X170723794Y-94118914D01*
X170743173Y-94109224D01*
X170754152Y-94120203D01*
X170787636Y-94120203D01*
X170811314Y-94096525D01*
X170814644Y-94079783D01*
X170814644Y-93613116D01*
X171060477Y-93613116D01*
X171060477Y-93979783D01*
X171060904Y-93981932D01*
X171060587Y-93982885D01*
X171062439Y-93989647D01*
X171063807Y-93996525D01*
X171064517Y-93997235D01*
X171065096Y-93999349D01*
X171098430Y-94066016D01*
X171103770Y-94072897D01*
X171104510Y-94075115D01*
X171106979Y-94077031D01*
X171108896Y-94079501D01*
X171111113Y-94080240D01*
X171117995Y-94085581D01*
X171184662Y-94118914D01*
X171186774Y-94119492D01*
X171187485Y-94120203D01*
X171194363Y-94121571D01*
X171201125Y-94123423D01*
X171202077Y-94123105D01*
X171204227Y-94123533D01*
X171304227Y-94123533D01*
X171306376Y-94123105D01*
X171307329Y-94123423D01*
X171314090Y-94121571D01*
X171320969Y-94120203D01*
X171321679Y-94119492D01*
X171323792Y-94118914D01*
X171365395Y-94098113D01*
X171387485Y-94120203D01*
X171420969Y-94120203D01*
X171444647Y-94096525D01*
X171447977Y-94079783D01*
X171447977Y-93713116D01*
X171660477Y-93713116D01*
X171660477Y-93746450D01*
X171660904Y-93748599D01*
X171660587Y-93749552D01*
X171662439Y-93756314D01*
X171663807Y-93763192D01*
X171664517Y-93763902D01*
X171665096Y-93766016D01*
X171698429Y-93832682D01*
X171703769Y-93839563D01*
X171704509Y-93841781D01*
X171706978Y-93843697D01*
X171708895Y-93846167D01*
X171711112Y-93846906D01*
X171717994Y-93852247D01*
X171784661Y-93885581D01*
X171786774Y-93886159D01*
X171787485Y-93886870D01*
X171794362Y-93888237D01*
X171801125Y-93890090D01*
X171802077Y-93889772D01*
X171804227Y-93890200D01*
X171893900Y-93890200D01*
X171938284Y-93912392D01*
X171960477Y-93956777D01*
X171960477Y-93969455D01*
X171938284Y-94013840D01*
X171893900Y-94036033D01*
X171781222Y-94036033D01*
X171723792Y-94007319D01*
X171707329Y-94002810D01*
X171675561Y-94013399D01*
X171660587Y-94043348D01*
X171671176Y-94075116D01*
X171684662Y-94085581D01*
X171751329Y-94118914D01*
X171753441Y-94119492D01*
X171754152Y-94120203D01*
X171761033Y-94121571D01*
X171767793Y-94123423D01*
X171768745Y-94123105D01*
X171770894Y-94123533D01*
X171904227Y-94123533D01*
X171906376Y-94123105D01*
X171907329Y-94123423D01*
X171914090Y-94121571D01*
X171920969Y-94120203D01*
X171921679Y-94119492D01*
X171923792Y-94118914D01*
X171990460Y-94085581D01*
X171997341Y-94080240D01*
X171999560Y-94079501D01*
X172001475Y-94077032D01*
X172003945Y-94075116D01*
X172004684Y-94072896D01*
X172010025Y-94066015D01*
X172043358Y-93999348D01*
X172043936Y-93997235D01*
X172044647Y-93996525D01*
X172046015Y-93989643D01*
X172047867Y-93982884D01*
X172047549Y-93981931D01*
X172047977Y-93979783D01*
X172047977Y-93946450D01*
X172047549Y-93944301D01*
X172047867Y-93943349D01*
X172046015Y-93936589D01*
X172044647Y-93929708D01*
X172043936Y-93928997D01*
X172043358Y-93926885D01*
X172010025Y-93860218D01*
X172004684Y-93853336D01*
X172003945Y-93851117D01*
X172001475Y-93849200D01*
X171999560Y-93846732D01*
X171997341Y-93845992D01*
X171990460Y-93840652D01*
X171923792Y-93807319D01*
X171921679Y-93806740D01*
X171920969Y-93806030D01*
X171914090Y-93804661D01*
X171907329Y-93802810D01*
X171906376Y-93803127D01*
X171904227Y-93802700D01*
X171814555Y-93802700D01*
X171770168Y-93780506D01*
X171747977Y-93736122D01*
X171747977Y-93723443D01*
X171770168Y-93679059D01*
X171814555Y-93656866D01*
X171893899Y-93656866D01*
X171951328Y-93685581D01*
X171967792Y-93690090D01*
X171999559Y-93679501D01*
X172014534Y-93649552D01*
X172003945Y-93617785D01*
X171990460Y-93607319D01*
X171968570Y-93596374D01*
X172163807Y-93596374D01*
X172163807Y-93629858D01*
X172187485Y-93653536D01*
X172204227Y-93656866D01*
X172260477Y-93656866D01*
X172260477Y-93979783D01*
X172260904Y-93981932D01*
X172260587Y-93982885D01*
X172262439Y-93989647D01*
X172263807Y-93996525D01*
X172264517Y-93997235D01*
X172265096Y-93999349D01*
X172298430Y-94066016D01*
X172303770Y-94072897D01*
X172304510Y-94075115D01*
X172306979Y-94077031D01*
X172308896Y-94079501D01*
X172311113Y-94080240D01*
X172317995Y-94085581D01*
X172384662Y-94118914D01*
X172386774Y-94119492D01*
X172387485Y-94120203D01*
X172394363Y-94121571D01*
X172401125Y-94123423D01*
X172402077Y-94123105D01*
X172404227Y-94123533D01*
X172470894Y-94123533D01*
X172487636Y-94120203D01*
X172511314Y-94096525D01*
X172511314Y-94063041D01*
X172487636Y-94039363D01*
X172470894Y-94036033D01*
X172414555Y-94036033D01*
X172370170Y-94013840D01*
X172347977Y-93969454D01*
X172347977Y-93656866D01*
X172470894Y-93656866D01*
X172487636Y-93653536D01*
X172511314Y-93629858D01*
X172511314Y-93613116D01*
X172660477Y-93613116D01*
X172660477Y-94079783D01*
X172663807Y-94096525D01*
X172687485Y-94120203D01*
X172720969Y-94120203D01*
X172744647Y-94096525D01*
X172747977Y-94079783D01*
X172747977Y-93756778D01*
X172773516Y-93705699D01*
X172796810Y-93682405D01*
X172847889Y-93656866D01*
X172904227Y-93656866D01*
X172920969Y-93653536D01*
X172944647Y-93629858D01*
X172944647Y-93613116D01*
X173093810Y-93613116D01*
X173093810Y-94079783D01*
X173097140Y-94096525D01*
X173120818Y-94120203D01*
X173154302Y-94120203D01*
X173177980Y-94096525D01*
X173181310Y-94079783D01*
X173181310Y-93713116D01*
X173393810Y-93713116D01*
X173393810Y-93979783D01*
X173394237Y-93981932D01*
X173393920Y-93982885D01*
X173395771Y-93989646D01*
X173397140Y-93996525D01*
X173397850Y-93997235D01*
X173398429Y-93999348D01*
X173431762Y-94066016D01*
X173437102Y-94072897D01*
X173437842Y-94075116D01*
X173440310Y-94077031D01*
X173442227Y-94079501D01*
X173444446Y-94080240D01*
X173451328Y-94085581D01*
X173517995Y-94118914D01*
X173520107Y-94119492D01*
X173520818Y-94120203D01*
X173527699Y-94121571D01*
X173534459Y-94123423D01*
X173535411Y-94123105D01*
X173537560Y-94123533D01*
X173670893Y-94123533D01*
X173673042Y-94123105D01*
X173673995Y-94123423D01*
X173680756Y-94121571D01*
X173687635Y-94120203D01*
X173688345Y-94119492D01*
X173690458Y-94118914D01*
X173757126Y-94085581D01*
X173770611Y-94075116D01*
X173781200Y-94043348D01*
X173766226Y-94013399D01*
X173734459Y-94002810D01*
X173717995Y-94007319D01*
X173660566Y-94036033D01*
X173547888Y-94036033D01*
X173503502Y-94013840D01*
X173481310Y-93969456D01*
X173481310Y-93882315D01*
X173779473Y-93822683D01*
X173785443Y-93820203D01*
X173787635Y-93820203D01*
X173789192Y-93818645D01*
X173795237Y-93816135D01*
X173802304Y-93805533D01*
X173811313Y-93796525D01*
X173812590Y-93790104D01*
X173813811Y-93788273D01*
X173813381Y-93786125D01*
X173814643Y-93779783D01*
X173814643Y-93713116D01*
X173993810Y-93713116D01*
X173993810Y-93746450D01*
X173994237Y-93748599D01*
X173993920Y-93749552D01*
X173995772Y-93756314D01*
X173997140Y-93763192D01*
X173997850Y-93763902D01*
X173998429Y-93766016D01*
X174031762Y-93832682D01*
X174037102Y-93839563D01*
X174037842Y-93841781D01*
X174040311Y-93843697D01*
X174042228Y-93846167D01*
X174044445Y-93846906D01*
X174051327Y-93852247D01*
X174117994Y-93885581D01*
X174120107Y-93886159D01*
X174120818Y-93886870D01*
X174127695Y-93888237D01*
X174134458Y-93890090D01*
X174135410Y-93889772D01*
X174137560Y-93890200D01*
X174227233Y-93890200D01*
X174271617Y-93912392D01*
X174293810Y-93956777D01*
X174293810Y-93969455D01*
X174271617Y-94013840D01*
X174227233Y-94036033D01*
X174114555Y-94036033D01*
X174057125Y-94007319D01*
X174040662Y-94002810D01*
X174008894Y-94013399D01*
X173993920Y-94043348D01*
X174004509Y-94075116D01*
X174017995Y-94085581D01*
X174084662Y-94118914D01*
X174086774Y-94119492D01*
X174087485Y-94120203D01*
X174094366Y-94121571D01*
X174101126Y-94123423D01*
X174102078Y-94123105D01*
X174104227Y-94123533D01*
X174237560Y-94123533D01*
X174239709Y-94123105D01*
X174240662Y-94123423D01*
X174247423Y-94121571D01*
X174254302Y-94120203D01*
X174255012Y-94119492D01*
X174257125Y-94118914D01*
X174323793Y-94085581D01*
X174330674Y-94080240D01*
X174332893Y-94079501D01*
X174334808Y-94077032D01*
X174337278Y-94075116D01*
X174338017Y-94072896D01*
X174343358Y-94066015D01*
X174376691Y-93999348D01*
X174377269Y-93997235D01*
X174377980Y-93996525D01*
X174379348Y-93989643D01*
X174381200Y-93982884D01*
X174380882Y-93981931D01*
X174381310Y-93979783D01*
X174381310Y-93946450D01*
X174380882Y-93944301D01*
X174381200Y-93943349D01*
X174379348Y-93936589D01*
X174377980Y-93929708D01*
X174377269Y-93928997D01*
X174376691Y-93926885D01*
X174343358Y-93860218D01*
X174338017Y-93853336D01*
X174337278Y-93851117D01*
X174334808Y-93849200D01*
X174332893Y-93846732D01*
X174330674Y-93845992D01*
X174323793Y-93840652D01*
X174257125Y-93807319D01*
X174255012Y-93806740D01*
X174254302Y-93806030D01*
X174247423Y-93804661D01*
X174240662Y-93802810D01*
X174239709Y-93803127D01*
X174237560Y-93802700D01*
X174147888Y-93802700D01*
X174103501Y-93780506D01*
X174081310Y-93736122D01*
X174081310Y-93723443D01*
X174103501Y-93679059D01*
X174147888Y-93656866D01*
X174227232Y-93656866D01*
X174284661Y-93685581D01*
X174301125Y-93690090D01*
X174332892Y-93679501D01*
X174347867Y-93649552D01*
X174337278Y-93617785D01*
X174323793Y-93607319D01*
X174257126Y-93573985D01*
X174255012Y-93573406D01*
X174254302Y-93572696D01*
X174247424Y-93571328D01*
X174240662Y-93569476D01*
X174239709Y-93569793D01*
X174237560Y-93569366D01*
X174137560Y-93569366D01*
X174135410Y-93569793D01*
X174134458Y-93569476D01*
X174127695Y-93571328D01*
X174120818Y-93572696D01*
X174120107Y-93573406D01*
X174117994Y-93573985D01*
X174051327Y-93607319D01*
X174044445Y-93612659D01*
X174042228Y-93613399D01*
X174040311Y-93615868D01*
X174037842Y-93617785D01*
X174037102Y-93620002D01*
X174031762Y-93626884D01*
X173998429Y-93693550D01*
X173997850Y-93695663D01*
X173997140Y-93696374D01*
X173995772Y-93703251D01*
X173993920Y-93710014D01*
X173994237Y-93710966D01*
X173993810Y-93713116D01*
X173814643Y-93713116D01*
X173814215Y-93710966D01*
X173814533Y-93710014D01*
X173812681Y-93703252D01*
X173811313Y-93696374D01*
X173810602Y-93695663D01*
X173810024Y-93693551D01*
X173776691Y-93626884D01*
X173771350Y-93620002D01*
X173770611Y-93617785D01*
X173768141Y-93615868D01*
X173766225Y-93613399D01*
X173764007Y-93612659D01*
X173757126Y-93607319D01*
X173690459Y-93573985D01*
X173688345Y-93573406D01*
X173687635Y-93572696D01*
X173680757Y-93571328D01*
X173673995Y-93569476D01*
X173673042Y-93569793D01*
X173670893Y-93569366D01*
X173537560Y-93569366D01*
X173535410Y-93569793D01*
X173534458Y-93569476D01*
X173527695Y-93571328D01*
X173520818Y-93572696D01*
X173520107Y-93573406D01*
X173517994Y-93573985D01*
X173451327Y-93607319D01*
X173444445Y-93612659D01*
X173442228Y-93613399D01*
X173440311Y-93615868D01*
X173437842Y-93617785D01*
X173437102Y-93620002D01*
X173431762Y-93626884D01*
X173398429Y-93693550D01*
X173397850Y-93695663D01*
X173397140Y-93696374D01*
X173395772Y-93703251D01*
X173393920Y-93710014D01*
X173394237Y-93710966D01*
X173393810Y-93713116D01*
X173181310Y-93713116D01*
X173181310Y-93613116D01*
X173177980Y-93596374D01*
X173154302Y-93572696D01*
X173120818Y-93572696D01*
X173097140Y-93596374D01*
X173093810Y-93613116D01*
X172944647Y-93613116D01*
X172944647Y-93596374D01*
X172920969Y-93572696D01*
X172904227Y-93569366D01*
X172837561Y-93569366D01*
X172835411Y-93569793D01*
X172834459Y-93569476D01*
X172827696Y-93571328D01*
X172820819Y-93572696D01*
X172820108Y-93573406D01*
X172817995Y-93573985D01*
X172751328Y-93607319D01*
X172747426Y-93610347D01*
X172744647Y-93596374D01*
X172720969Y-93572696D01*
X172687485Y-93572696D01*
X172663807Y-93596374D01*
X172660477Y-93613116D01*
X172511314Y-93613116D01*
X172511314Y-93596374D01*
X172487636Y-93572696D01*
X172470894Y-93569366D01*
X172347977Y-93569366D01*
X172347977Y-93396373D01*
X173063807Y-93396373D01*
X173063807Y-93429859D01*
X173063809Y-93429861D01*
X173073291Y-93444051D01*
X173106624Y-93477386D01*
X173120817Y-93486870D01*
X173120818Y-93486870D01*
X173154302Y-93486870D01*
X173154303Y-93486870D01*
X173168496Y-93477386D01*
X173201830Y-93444052D01*
X173211313Y-93429859D01*
X173211314Y-93429858D01*
X173211314Y-93396373D01*
X173201830Y-93382180D01*
X173168495Y-93348847D01*
X173154305Y-93339365D01*
X173154303Y-93339363D01*
X173120817Y-93339363D01*
X173106624Y-93348847D01*
X173073291Y-93382180D01*
X173063807Y-93396373D01*
X172347977Y-93396373D01*
X172347977Y-93379783D01*
X172344647Y-93363041D01*
X172320969Y-93339363D01*
X172287485Y-93339363D01*
X172263807Y-93363041D01*
X172260477Y-93379783D01*
X172260477Y-93569366D01*
X172204227Y-93569366D01*
X172187485Y-93572696D01*
X172163807Y-93596374D01*
X171968570Y-93596374D01*
X171923793Y-93573985D01*
X171921679Y-93573406D01*
X171920969Y-93572696D01*
X171914091Y-93571328D01*
X171907329Y-93569476D01*
X171906376Y-93569793D01*
X171904227Y-93569366D01*
X171804227Y-93569366D01*
X171802077Y-93569793D01*
X171801125Y-93569476D01*
X171794362Y-93571328D01*
X171787485Y-93572696D01*
X171786774Y-93573406D01*
X171784661Y-93573985D01*
X171717994Y-93607319D01*
X171711112Y-93612659D01*
X171708895Y-93613399D01*
X171706978Y-93615868D01*
X171704509Y-93617785D01*
X171703769Y-93620002D01*
X171698429Y-93626884D01*
X171665096Y-93693550D01*
X171664517Y-93695663D01*
X171663807Y-93696374D01*
X171662439Y-93703251D01*
X171660587Y-93710014D01*
X171660904Y-93710966D01*
X171660477Y-93713116D01*
X171447977Y-93713116D01*
X171447977Y-93613116D01*
X171444647Y-93596374D01*
X171420969Y-93572696D01*
X171387485Y-93572696D01*
X171363807Y-93596374D01*
X171360477Y-93613116D01*
X171360477Y-93994994D01*
X171344978Y-94010494D01*
X171293900Y-94036033D01*
X171214555Y-94036033D01*
X171170170Y-94013840D01*
X171147977Y-93969454D01*
X171147977Y-93613116D01*
X171144647Y-93596374D01*
X171120969Y-93572696D01*
X171087485Y-93572696D01*
X171063807Y-93596374D01*
X171060477Y-93613116D01*
X170814644Y-93613116D01*
X170814644Y-93379783D01*
X170811314Y-93363041D01*
X170787636Y-93339363D01*
X170754152Y-93339363D01*
X170730474Y-93363041D01*
X170727144Y-93379783D01*
X170727144Y-93575660D01*
X170723794Y-93573985D01*
X170721680Y-93573406D01*
X170720970Y-93572696D01*
X170714092Y-93571328D01*
X170707330Y-93569476D01*
X170706377Y-93569793D01*
X170704228Y-93569366D01*
X170570894Y-93569366D01*
X170568743Y-93569793D01*
X170567791Y-93569476D01*
X170561027Y-93571328D01*
X170554152Y-93572696D01*
X170553441Y-93573406D01*
X170551328Y-93573985D01*
X170484662Y-93607319D01*
X170479125Y-93611616D01*
X170473293Y-93615513D01*
X170439959Y-93648847D01*
X170436069Y-93654667D01*
X170431763Y-93660217D01*
X170398430Y-93726885D01*
X170397851Y-93728997D01*
X170397141Y-93729708D01*
X170395772Y-93736586D01*
X170393921Y-93743348D01*
X170394238Y-93744300D01*
X170393811Y-93746450D01*
X170181311Y-93746450D01*
X170181311Y-93713116D01*
X170180883Y-93710966D01*
X170181201Y-93710014D01*
X170179349Y-93703252D01*
X170177981Y-93696374D01*
X170177270Y-93695663D01*
X170176692Y-93693551D01*
X170143359Y-93626884D01*
X170138018Y-93620002D01*
X170137279Y-93617785D01*
X170134809Y-93615868D01*
X170132893Y-93613399D01*
X170130675Y-93612659D01*
X170123794Y-93607319D01*
X170057127Y-93573985D01*
X170055013Y-93573406D01*
X170054303Y-93572696D01*
X170047425Y-93571328D01*
X170040663Y-93569476D01*
X170039710Y-93569793D01*
X170037561Y-93569366D01*
X169937561Y-93569366D01*
X169935410Y-93569793D01*
X169934458Y-93569476D01*
X169927694Y-93571328D01*
X169920819Y-93572696D01*
X169920108Y-93573406D01*
X169917995Y-93573985D01*
X169876393Y-93594786D01*
X169854303Y-93572696D01*
X169820819Y-93572696D01*
X169797141Y-93596374D01*
X169793811Y-93613116D01*
X169547978Y-93613116D01*
X169547978Y-93379783D01*
X169544648Y-93363041D01*
X169520970Y-93339363D01*
X169487486Y-93339363D01*
X169463808Y-93363041D01*
X169460478Y-93379783D01*
X168047979Y-93379783D01*
X168044649Y-93363041D01*
X168020971Y-93339363D01*
X167987487Y-93339363D01*
X167963809Y-93363041D01*
X167960479Y-93379783D01*
X167960479Y-93575660D01*
X167957129Y-93573985D01*
X167955015Y-93573406D01*
X167954305Y-93572696D01*
X167947427Y-93571328D01*
X167940665Y-93569476D01*
X167939712Y-93569793D01*
X167937563Y-93569366D01*
X167804229Y-93569366D01*
X167802078Y-93569793D01*
X167801126Y-93569476D01*
X167794362Y-93571328D01*
X167787487Y-93572696D01*
X167786776Y-93573406D01*
X167784663Y-93573985D01*
X167717997Y-93607319D01*
X167712460Y-93611616D01*
X167706628Y-93615513D01*
X167673294Y-93648847D01*
X167669404Y-93654667D01*
X167665098Y-93660217D01*
X167631765Y-93726885D01*
X167631186Y-93728997D01*
X167630476Y-93729708D01*
X167629107Y-93736586D01*
X167627256Y-93743348D01*
X167627573Y-93744300D01*
X167627146Y-93746450D01*
X167414646Y-93746450D01*
X167414646Y-93713116D01*
X167414218Y-93710966D01*
X167414536Y-93710014D01*
X167412684Y-93703252D01*
X167411316Y-93696374D01*
X167410605Y-93695663D01*
X167410027Y-93693551D01*
X167376694Y-93626884D01*
X167371353Y-93620002D01*
X167370614Y-93617785D01*
X167368144Y-93615868D01*
X167366228Y-93613399D01*
X167364010Y-93612659D01*
X167357129Y-93607319D01*
X167290462Y-93573985D01*
X167288348Y-93573406D01*
X167287638Y-93572696D01*
X167280760Y-93571328D01*
X167273998Y-93569476D01*
X167273045Y-93569793D01*
X167270896Y-93569366D01*
X167137563Y-93569366D01*
X167135413Y-93569793D01*
X167134461Y-93569476D01*
X167127698Y-93571328D01*
X167120821Y-93572696D01*
X167120110Y-93573406D01*
X167117997Y-93573985D01*
X167051330Y-93607319D01*
X167037845Y-93617785D01*
X167027256Y-93649552D01*
X167042231Y-93679501D01*
X167073998Y-93690090D01*
X167090462Y-93685581D01*
X167147891Y-93656866D01*
X167260568Y-93656866D01*
X167304953Y-93679059D01*
X167327146Y-93723444D01*
X167327146Y-93752744D01*
X167293902Y-93769366D01*
X167137563Y-93769366D01*
X167135413Y-93769793D01*
X167134461Y-93769476D01*
X167127698Y-93771328D01*
X167120821Y-93772696D01*
X167120110Y-93773406D01*
X167117997Y-93773985D01*
X167051330Y-93807319D01*
X167044448Y-93812659D01*
X167042231Y-93813399D01*
X167040314Y-93815868D01*
X167037845Y-93817785D01*
X167037105Y-93820002D01*
X167031765Y-93826884D01*
X166998432Y-93893550D01*
X166997853Y-93895663D01*
X166997143Y-93896374D01*
X166995775Y-93903251D01*
X166993923Y-93910014D01*
X166994240Y-93910966D01*
X166993813Y-93913116D01*
X166707633Y-93913116D01*
X166621591Y-93790200D01*
X166637563Y-93790200D01*
X166639712Y-93789772D01*
X166640665Y-93790090D01*
X166647427Y-93788237D01*
X166654305Y-93786870D01*
X166655015Y-93786159D01*
X166657129Y-93785581D01*
X166723796Y-93752247D01*
X166729332Y-93747950D01*
X166735166Y-93744052D01*
X166768499Y-93710719D01*
X166772397Y-93704884D01*
X166776694Y-93699348D01*
X166810027Y-93632681D01*
X166810605Y-93630568D01*
X166811316Y-93629858D01*
X166812684Y-93622976D01*
X166814536Y-93616217D01*
X166814218Y-93615264D01*
X166814646Y-93613116D01*
X166814646Y-93513116D01*
X166814218Y-93510966D01*
X166814536Y-93510014D01*
X166812684Y-93503252D01*
X166811316Y-93496374D01*
X166810605Y-93495663D01*
X166810027Y-93493551D01*
X166776694Y-93426884D01*
X166772396Y-93421347D01*
X166768500Y-93415515D01*
X166735166Y-93382181D01*
X166729345Y-93378291D01*
X166723796Y-93373985D01*
X166657128Y-93340652D01*
X166655015Y-93340073D01*
X166654305Y-93339363D01*
X166647426Y-93337994D01*
X166640665Y-93336143D01*
X166639712Y-93336460D01*
X166637563Y-93336033D01*
X166370896Y-93336033D01*
X166354154Y-93339363D01*
X166330476Y-93363041D01*
X166327146Y-93379783D01*
X165566103Y-93379783D01*
X165535165Y-93348847D01*
X165520975Y-93339365D01*
X165520973Y-93339363D01*
X165487487Y-93339363D01*
X165473294Y-93348847D01*
X165439961Y-93382180D01*
X165430477Y-93396373D01*
X164677984Y-93396373D01*
X164668500Y-93382180D01*
X164635165Y-93348847D01*
X164620975Y-93339365D01*
X164620973Y-93339363D01*
X164587487Y-93339363D01*
X164573294Y-93348847D01*
X164539961Y-93382180D01*
X164530477Y-93396373D01*
X162844651Y-93396373D01*
X162844651Y-93363041D01*
X162820973Y-93339363D01*
X162804231Y-93336033D01*
X162404231Y-93336033D01*
X162387489Y-93339363D01*
X162363811Y-93363041D01*
X162286033Y-93363041D01*
X162286033Y-93258255D01*
X174459088Y-93258255D01*
X174459088Y-94267978D01*
G37*
D11*
X143063333Y-102799580D02*
X143015714Y-102847200D01*
X143015714Y-102847200D02*
X142872857Y-102894819D01*
X142872857Y-102894819D02*
X142777619Y-102894819D01*
X142777619Y-102894819D02*
X142634762Y-102847200D01*
X142634762Y-102847200D02*
X142539524Y-102751961D01*
X142539524Y-102751961D02*
X142491905Y-102656723D01*
X142491905Y-102656723D02*
X142444286Y-102466247D01*
X142444286Y-102466247D02*
X142444286Y-102323390D01*
X142444286Y-102323390D02*
X142491905Y-102132914D01*
X142491905Y-102132914D02*
X142539524Y-102037676D01*
X142539524Y-102037676D02*
X142634762Y-101942438D01*
X142634762Y-101942438D02*
X142777619Y-101894819D01*
X142777619Y-101894819D02*
X142872857Y-101894819D01*
X142872857Y-101894819D02*
X143015714Y-101942438D01*
X143015714Y-101942438D02*
X143063333Y-101990057D01*
X143968095Y-101894819D02*
X143491905Y-101894819D01*
X143491905Y-101894819D02*
X143444286Y-102371009D01*
X143444286Y-102371009D02*
X143491905Y-102323390D01*
X143491905Y-102323390D02*
X143587143Y-102275771D01*
X143587143Y-102275771D02*
X143825238Y-102275771D01*
X143825238Y-102275771D02*
X143920476Y-102323390D01*
X143920476Y-102323390D02*
X143968095Y-102371009D01*
X143968095Y-102371009D02*
X144015714Y-102466247D01*
X144015714Y-102466247D02*
X144015714Y-102704342D01*
X144015714Y-102704342D02*
X143968095Y-102799580D01*
X143968095Y-102799580D02*
X143920476Y-102847200D01*
X143920476Y-102847200D02*
X143825238Y-102894819D01*
X143825238Y-102894819D02*
X143587143Y-102894819D01*
X143587143Y-102894819D02*
X143491905Y-102847200D01*
X143491905Y-102847200D02*
X143444286Y-102799580D01*
X164942319Y-104383333D02*
X165656604Y-104383333D01*
X165656604Y-104383333D02*
X165799461Y-104430952D01*
X165799461Y-104430952D02*
X165894700Y-104526190D01*
X165894700Y-104526190D02*
X165942319Y-104669047D01*
X165942319Y-104669047D02*
X165942319Y-104764285D01*
X165037557Y-103954761D02*
X164989938Y-103907142D01*
X164989938Y-103907142D02*
X164942319Y-103811904D01*
X164942319Y-103811904D02*
X164942319Y-103573809D01*
X164942319Y-103573809D02*
X164989938Y-103478571D01*
X164989938Y-103478571D02*
X165037557Y-103430952D01*
X165037557Y-103430952D02*
X165132795Y-103383333D01*
X165132795Y-103383333D02*
X165228033Y-103383333D01*
X165228033Y-103383333D02*
X165370890Y-103430952D01*
X165370890Y-103430952D02*
X165942319Y-104002380D01*
X165942319Y-104002380D02*
X165942319Y-103383333D01*
X153973333Y-94199580D02*
X153925714Y-94247200D01*
X153925714Y-94247200D02*
X153782857Y-94294819D01*
X153782857Y-94294819D02*
X153687619Y-94294819D01*
X153687619Y-94294819D02*
X153544762Y-94247200D01*
X153544762Y-94247200D02*
X153449524Y-94151961D01*
X153449524Y-94151961D02*
X153401905Y-94056723D01*
X153401905Y-94056723D02*
X153354286Y-93866247D01*
X153354286Y-93866247D02*
X153354286Y-93723390D01*
X153354286Y-93723390D02*
X153401905Y-93532914D01*
X153401905Y-93532914D02*
X153449524Y-93437676D01*
X153449524Y-93437676D02*
X153544762Y-93342438D01*
X153544762Y-93342438D02*
X153687619Y-93294819D01*
X153687619Y-93294819D02*
X153782857Y-93294819D01*
X153782857Y-93294819D02*
X153925714Y-93342438D01*
X153925714Y-93342438D02*
X153973333Y-93390057D01*
X154354286Y-93390057D02*
X154401905Y-93342438D01*
X154401905Y-93342438D02*
X154497143Y-93294819D01*
X154497143Y-93294819D02*
X154735238Y-93294819D01*
X154735238Y-93294819D02*
X154830476Y-93342438D01*
X154830476Y-93342438D02*
X154878095Y-93390057D01*
X154878095Y-93390057D02*
X154925714Y-93485295D01*
X154925714Y-93485295D02*
X154925714Y-93580533D01*
X154925714Y-93580533D02*
X154878095Y-93723390D01*
X154878095Y-93723390D02*
X154306667Y-94294819D01*
X154306667Y-94294819D02*
X154925714Y-94294819D01*
X139379580Y-106896666D02*
X139427200Y-106944285D01*
X139427200Y-106944285D02*
X139474819Y-107087142D01*
X139474819Y-107087142D02*
X139474819Y-107182380D01*
X139474819Y-107182380D02*
X139427200Y-107325237D01*
X139427200Y-107325237D02*
X139331961Y-107420475D01*
X139331961Y-107420475D02*
X139236723Y-107468094D01*
X139236723Y-107468094D02*
X139046247Y-107515713D01*
X139046247Y-107515713D02*
X138903390Y-107515713D01*
X138903390Y-107515713D02*
X138712914Y-107468094D01*
X138712914Y-107468094D02*
X138617676Y-107420475D01*
X138617676Y-107420475D02*
X138522438Y-107325237D01*
X138522438Y-107325237D02*
X138474819Y-107182380D01*
X138474819Y-107182380D02*
X138474819Y-107087142D01*
X138474819Y-107087142D02*
X138522438Y-106944285D01*
X138522438Y-106944285D02*
X138570057Y-106896666D01*
X138808152Y-106039523D02*
X139474819Y-106039523D01*
X138427200Y-106277618D02*
X139141485Y-106515713D01*
X139141485Y-106515713D02*
X139141485Y-105896666D01*
X149469580Y-108586666D02*
X149517200Y-108634285D01*
X149517200Y-108634285D02*
X149564819Y-108777142D01*
X149564819Y-108777142D02*
X149564819Y-108872380D01*
X149564819Y-108872380D02*
X149517200Y-109015237D01*
X149517200Y-109015237D02*
X149421961Y-109110475D01*
X149421961Y-109110475D02*
X149326723Y-109158094D01*
X149326723Y-109158094D02*
X149136247Y-109205713D01*
X149136247Y-109205713D02*
X148993390Y-109205713D01*
X148993390Y-109205713D02*
X148802914Y-109158094D01*
X148802914Y-109158094D02*
X148707676Y-109110475D01*
X148707676Y-109110475D02*
X148612438Y-109015237D01*
X148612438Y-109015237D02*
X148564819Y-108872380D01*
X148564819Y-108872380D02*
X148564819Y-108777142D01*
X148564819Y-108777142D02*
X148612438Y-108634285D01*
X148612438Y-108634285D02*
X148660057Y-108586666D01*
X148564819Y-108253332D02*
X148564819Y-107634285D01*
X148564819Y-107634285D02*
X148945771Y-107967618D01*
X148945771Y-107967618D02*
X148945771Y-107824761D01*
X148945771Y-107824761D02*
X148993390Y-107729523D01*
X148993390Y-107729523D02*
X149041009Y-107681904D01*
X149041009Y-107681904D02*
X149136247Y-107634285D01*
X149136247Y-107634285D02*
X149374342Y-107634285D01*
X149374342Y-107634285D02*
X149469580Y-107681904D01*
X149469580Y-107681904D02*
X149517200Y-107729523D01*
X149517200Y-107729523D02*
X149564819Y-107824761D01*
X149564819Y-107824761D02*
X149564819Y-108110475D01*
X149564819Y-108110475D02*
X149517200Y-108205713D01*
X149517200Y-108205713D02*
X149469580Y-108253332D01*
X149439580Y-105506666D02*
X149487200Y-105554285D01*
X149487200Y-105554285D02*
X149534819Y-105697142D01*
X149534819Y-105697142D02*
X149534819Y-105792380D01*
X149534819Y-105792380D02*
X149487200Y-105935237D01*
X149487200Y-105935237D02*
X149391961Y-106030475D01*
X149391961Y-106030475D02*
X149296723Y-106078094D01*
X149296723Y-106078094D02*
X149106247Y-106125713D01*
X149106247Y-106125713D02*
X148963390Y-106125713D01*
X148963390Y-106125713D02*
X148772914Y-106078094D01*
X148772914Y-106078094D02*
X148677676Y-106030475D01*
X148677676Y-106030475D02*
X148582438Y-105935237D01*
X148582438Y-105935237D02*
X148534819Y-105792380D01*
X148534819Y-105792380D02*
X148534819Y-105697142D01*
X148534819Y-105697142D02*
X148582438Y-105554285D01*
X148582438Y-105554285D02*
X148630057Y-105506666D01*
X149534819Y-104554285D02*
X149534819Y-105125713D01*
X149534819Y-104839999D02*
X148534819Y-104839999D01*
X148534819Y-104839999D02*
X148677676Y-104935237D01*
X148677676Y-104935237D02*
X148772914Y-105030475D01*
X148772914Y-105030475D02*
X148820533Y-105125713D01*
X135714819Y-103093333D02*
X136429104Y-103093333D01*
X136429104Y-103093333D02*
X136571961Y-103140952D01*
X136571961Y-103140952D02*
X136667200Y-103236190D01*
X136667200Y-103236190D02*
X136714819Y-103379047D01*
X136714819Y-103379047D02*
X136714819Y-103474285D01*
X136714819Y-102093333D02*
X136714819Y-102664761D01*
X136714819Y-102379047D02*
X135714819Y-102379047D01*
X135714819Y-102379047D02*
X135857676Y-102474285D01*
X135857676Y-102474285D02*
X135952914Y-102569523D01*
X135952914Y-102569523D02*
X136000533Y-102664761D01*
X156798095Y-110224819D02*
X156798095Y-111034342D01*
X156798095Y-111034342D02*
X156845714Y-111129580D01*
X156845714Y-111129580D02*
X156893333Y-111177200D01*
X156893333Y-111177200D02*
X156988571Y-111224819D01*
X156988571Y-111224819D02*
X157179047Y-111224819D01*
X157179047Y-111224819D02*
X157274285Y-111177200D01*
X157274285Y-111177200D02*
X157321904Y-111129580D01*
X157321904Y-111129580D02*
X157369523Y-111034342D01*
X157369523Y-111034342D02*
X157369523Y-110224819D01*
X158369523Y-111224819D02*
X157798095Y-111224819D01*
X158083809Y-111224819D02*
X158083809Y-110224819D01*
X158083809Y-110224819D02*
X157988571Y-110367676D01*
X157988571Y-110367676D02*
X157893333Y-110462914D01*
X157893333Y-110462914D02*
X157798095Y-110510533D01*
D12*
%TO.C,C5*%
X139820000Y-94680000D02*
X139820000Y-97030000D01*
X139820000Y-101500000D02*
X139820000Y-99150000D01*
X145575563Y-94680000D02*
X139820000Y-94680000D01*
X145575563Y-101500000D02*
X139820000Y-101500000D01*
X146640000Y-95744437D02*
X145575563Y-94680000D01*
X146640000Y-95744437D02*
X146640000Y-97030000D01*
X146640000Y-100435563D02*
X145575563Y-101500000D01*
X146640000Y-100435563D02*
X146640000Y-99150000D01*
X147273750Y-100331250D02*
X147273750Y-99543750D01*
X147667500Y-99937500D02*
X146880000Y-99937500D01*
%TO.C,J2*%
X166487500Y-98680000D02*
X174527500Y-98680000D01*
X166487500Y-109420000D02*
X166487500Y-98680000D01*
X170107500Y-99488000D02*
X170107500Y-98680000D01*
X170107500Y-104420000D02*
X170107500Y-103112000D01*
X170107500Y-109420000D02*
X170107500Y-108180000D01*
X171107500Y-99488000D02*
X171107500Y-98680000D01*
X171107500Y-104420000D02*
X171107500Y-103112000D01*
X171107500Y-109420000D02*
X171107500Y-108180000D01*
X172407500Y-100757000D02*
X172407500Y-98680000D01*
X172407500Y-104420000D02*
X172407500Y-101843000D01*
X172407500Y-109420000D02*
X172407500Y-108180000D01*
X174527500Y-98680000D02*
X174527500Y-106000000D01*
X174527500Y-106600000D02*
X174527500Y-109420000D01*
X174527500Y-109420000D02*
X166487500Y-109420000D01*
X175137500Y-106740000D02*
X174527500Y-106300000D01*
X175137500Y-105860000D01*
X175137500Y-106740000D01*
G36*
X175137500Y-106740000D02*
G01*
X174527500Y-106300000D01*
X175137500Y-105860000D01*
X175137500Y-106740000D01*
G37*
%TO.C,C2*%
X149722500Y-96222500D02*
X150510000Y-96222500D01*
X150116250Y-95828750D02*
X150116250Y-96616250D01*
X150750000Y-95724437D02*
X150750000Y-97010000D01*
X150750000Y-95724437D02*
X151814437Y-94660000D01*
X150750000Y-100415563D02*
X150750000Y-99130000D01*
X150750000Y-100415563D02*
X151814437Y-101480000D01*
X151814437Y-94660000D02*
X157570000Y-94660000D01*
X151814437Y-101480000D02*
X157570000Y-101480000D01*
X157570000Y-94660000D02*
X157570000Y-97010000D01*
X157570000Y-101480000D02*
X157570000Y-99130000D01*
%TO.C,C4*%
X139840000Y-104100000D02*
X142190000Y-104100000D01*
X139840000Y-109855563D02*
X139840000Y-104100000D01*
X140904437Y-110920000D02*
X139840000Y-109855563D01*
X140904437Y-110920000D02*
X142190000Y-110920000D01*
X141008750Y-111553750D02*
X141796250Y-111553750D01*
X141402500Y-111947500D02*
X141402500Y-111160000D01*
X145595563Y-110920000D02*
X144310000Y-110920000D01*
X145595563Y-110920000D02*
X146660000Y-109855563D01*
X146660000Y-104100000D02*
X144310000Y-104100000D01*
X146660000Y-109855563D02*
X146660000Y-104100000D01*
%TO.C,C3*%
X149910000Y-108527836D02*
X149910000Y-108312164D01*
X150630000Y-108527836D02*
X150630000Y-108312164D01*
%TO.C,C1*%
X149880000Y-105447836D02*
X149880000Y-105232164D01*
X150600000Y-105447836D02*
X150600000Y-105232164D01*
%TO.C,J1*%
X130360000Y-98950000D02*
X130620000Y-98950000D01*
X130620000Y-106570000D02*
X130360000Y-106570000D01*
X132900000Y-98950000D02*
X134670000Y-98950000D01*
X134670000Y-98950000D02*
X134670000Y-99330000D01*
X134670000Y-106570000D02*
X132900000Y-106570000D01*
X134670000Y-106570000D02*
X134670000Y-106190000D01*
%TO.C,U1*%
X154235000Y-102995000D02*
X154235000Y-103265000D01*
X154235000Y-109895000D02*
X154235000Y-109625000D01*
X160655000Y-102995000D02*
X154235000Y-102995000D01*
X160655000Y-109895000D02*
X154235000Y-109895000D01*
X152505000Y-103305000D02*
X152165000Y-102835000D01*
X152845000Y-102835000D01*
X152505000Y-103305000D01*
G36*
X152505000Y-103305000D02*
G01*
X152165000Y-102835000D01*
X152845000Y-102835000D01*
X152505000Y-103305000D01*
G37*
%TD*%
M02*
